<?xml version="1.0" encoding="utf-8"?>
<!-- Generator: Adobe Illustrator 16.0.0, SVG Export Plug-In . SVG Version: 6.00 Build 0)  -->
<!DOCTYPE svg PUBLIC "-//W3C//DTD SVG 1.1//EN" "http://www.w3.org/Graphics/SVG/1.1/DTD/svg11.dtd">
<svg id="logo" version="1.1" id="Layer_1" xmlns="http://www.w3.org/2000/svg" xmlns:xlink="http://www.w3.org/1999/xlink" x="0px" y="0px"
width="96.436px" height="96.434px" viewBox="0 0 96.436 96.434" enable-background="new 0 0 96.436 96.434" xml:space="preserve">
	<rect opacity="0.8" y="-0.001" fill="#D1D3D4" width="96.436" height="96.436"/>
	<polygon opacity="0.4" fill="#5684C3" points="58.729,8.53 58.729,48.182 58.355,47.809 19.45,47.809 "/>
	<polygon opacity="0.4" fill="#5684C3" points="84.281,47.663 45.041,86.9 45.041,47.663 "/>
	<polygon id="logo-upper-s" fill="#5684C3" points="56.988,8.589 56.988,48.24 56.615,47.867 17.709,47.867 "/>
	<path fill="none" stroke="#000000" stroke-width="0.25" stroke-miterlimit="10" d="M41.938,20.755"/>
	<polygon id="logo-lower-s" fill="#5684C3" points="82.54,47.722 43.3,86.959 43.3,47.722 "/>
	<polygon id="logo-w" fill="#414042" points="69.682,47.716 43.3,74.095 30.444,86.953 30.444,47.716 "/>
	<polygon id="logo-stripes" fill="#414042" points="29.24,57.22 20.793,57.22 17.696,50.652 29.24,50.652 "/>
	<polygon id="logo-stripes" fill="#414042" points="29.24,67.134 24.876,67.134 21.844,60.565 29.24,60.565 "/>
	<polygon id="logo-stripes" fill="#414042" points="29.24,77.046 29.24,77.046 25.542,70.478 29.24,70.478 "/>
	<polygon opacity="0.4" fill="#414042" points="72.067,46.78 43.596,75.251 29.72,89.128 29.72,46.78 "/>
</svg>
