<?xml version="1.0" encoding="utf-8"?>
<!-- Generator: Adobe Illustrator 16.0.0, SVG Export Plug-In . SVG Version: 6.00 Build 0)  -->
<!DOCTYPE svg PUBLIC "-//W3C//DTD SVG 1.1//EN" "http://www.w3.org/Graphics/SVG/1.1/DTD/svg11.dtd">
<svg version="1.1" id="mern-stack" xmlns="http://www.w3.org/2000/svg" xmlns:xlink="http://www.w3.org/1999/xlink" x="0px" y="0px"
	 width="180px" height="151px" viewBox="0 0 150 121" enable-background="new 0 0 150 121" xml:space="preserve">
<g id="mern-express">
	<path fill="#BE1E2D" stroke="#ED1C24" stroke-width="0.25" stroke-miterlimit="10" d="M147.863,96.006l-76.121,24.297
		c-1.456,0.458-3.809,0.367-5.228-0.204L3.082,94.591c-1.203-0.457-1.382-1.26-1.547-1.963c-0.134-0.573,0.095-1.824,0.095-1.824
		l67.466,27.279l75.994-24.246c0,0,2.174-0.65,3.242-1.03c0.245-0.106,0.941-0.527,0.941-0.527s0.32,1.239,0.167,1.971
		C149.338,94.742,149.31,95.548,147.863,96.006z"/>
	<g>
		<path fill="#343841" d="M147.587,91.401c1.602,0.394,1.698,1.103,0.213,1.576s-2.702,0.86-2.705,0.86s-1.291,0.41-2.863,0.912
			l-70.277,22.423c-1.572,0.501-4.111,0.408-5.642-0.208L8.3,93.633c-1.53-0.615-3.912-1.573-5.292-2.127
			c-1.379-0.555-1.186-1.281,0.431-1.614l72.066-14.857c1.616-0.333,4.25-0.284,5.852,0.109L147.587,91.401z"/>
		<path fill="none" stroke="#BE1E2D" stroke-miterlimit="10" d="M147.587,91.401c1.602,0.394,1.698,1.103,0.213,1.576
			s-2.702,0.86-2.705,0.86s-1.291,0.41-2.863,0.912l-70.277,22.423c-1.572,0.501-4.111,0.408-5.642-0.208L8.3,93.633
			c-1.53-0.615-3.912-1.573-5.292-2.127c-1.379-0.555-1.186-1.281,0.431-1.614l72.066-14.857c1.616-0.333,4.25-0.284,5.852,0.109
			L147.587,91.401z"/>
	</g>
	<g>
		<path fill="#ED1C24" stroke="#343841" stroke-width="0.3" stroke-miterlimit="10" d="M38.43,100.478
			c-0.92-0.385-1.252-0.837-0.995-1.359c0.259-0.519,1.084-1.066,2.474-1.639c1.282-0.527,2.536-0.836,3.762-0.925
			c1.227-0.09,2.292,0.049,3.2,0.42c0.927,0.38,1.283,0.826,1.05,1.34c-0.23,0.514-1.026,1.058-2.393,1.627
			c-0.148,0.068-0.318,0.131-0.508,0.189l-4.15-1.718c-0.6,0.278-0.968,0.518-1.109,0.723c-0.169,0.256,0.004,0.493,0.527,0.71
			c0.242,0.1,0.557,0.156,0.944,0.166c0.393,0.01,0.733-0.03,1.033-0.121l1.641,0.682c-0.959,0.286-1.924,0.419-2.895,0.403
			C40.046,100.958,39.184,100.794,38.43,100.478z M44.713,98.885c0.444-0.214,0.723-0.41,0.835-0.587
			c0.152-0.235,0.014-0.439-0.424-0.617c-0.411-0.171-0.935-0.213-1.564-0.13c-0.398,0.056-0.845,0.158-1.33,0.311L44.713,98.885z"
			/>
		<path fill="#ED1C24" stroke="#343841" stroke-width="0.3" stroke-miterlimit="10" d="M48.25,100.955l1.901-2.463l0.979,0.4
			l0.98,0.402l-1.32,1.418l3.403-0.569l0.954,0.391l0.966,0.396l-5.976,0.836l-1.981,2.604l-1.004-0.421l-1.01-0.421l1.394-1.489
			l-3.544,0.59l-0.98-0.408l-0.977-0.409L48.25,100.955z"/>
	</g>
</g>
<g id="mern-mongo">
	<path fill="#8B5E3C" stroke="#8B5E3C" stroke-width="0.25" stroke-miterlimit="10" d="M147.863,71.396L71.742,95.693
		c-1.456,0.458-3.809,0.366-5.228-0.204L3.082,69.98C1.879,69.523,1.7,68.72,1.535,68.017c-0.134-0.573,0.095-1.824,0.095-1.824
		l67.466,27.28l75.994-24.246c0,0,2.174-0.65,3.242-1.03c0.245-0.106,0.941-0.527,0.941-0.527s0.32,1.239,0.167,1.97
		C149.338,70.13,149.31,70.938,147.863,71.396z"/>
	<g>
		<path fill="#343841" d="M147.587,66.791c1.602,0.394,1.698,1.103,0.213,1.576s-2.702,0.86-2.705,0.86s-1.291,0.41-2.863,0.912
			L71.954,92.561c-1.572,0.502-4.111,0.408-5.642-0.207L8.3,69.022c-1.53-0.616-3.912-1.573-5.292-2.128
			c-1.379-0.554-1.186-1.28,0.431-1.614l72.066-14.857c1.616-0.333,4.25-0.284,5.852,0.109L147.587,66.791z"/>
		<path fill="none" stroke="#8B5E3C" stroke-miterlimit="10" d="M147.587,66.791c1.602,0.394,1.698,1.103,0.213,1.576
			s-2.702,0.86-2.705,0.86s-1.291,0.41-2.863,0.912L71.954,92.561c-1.572,0.502-4.111,0.408-5.642-0.207L8.3,69.022
			c-1.53-0.616-3.912-1.573-5.292-2.128c-1.379-0.554-1.186-1.28,0.431-1.614l72.066-14.857c1.616-0.333,4.25-0.284,5.852,0.109
			L147.587,66.791z"/>
	</g>
	<g>
		<g>
			<path fill-rule="evenodd" clip-rule="evenodd" fill="#8B5E3C" stroke="#343841" stroke-width="0.4" stroke-miterlimit="10" d="
				M60.549,68.465l-18.66,7.754h-0.067l-1.546-0.047c-0.694-4.009,7.593-7.395,19.018-7.646c0.435-0.096,1.169-0.168,1.246-0.072
				L60.549,68.465z"/>
			<path fill-rule="evenodd" clip-rule="evenodd" fill="#8B5E3C" stroke="#343841" stroke-width="0.4" stroke-miterlimit="10" d="
				M60.201,69.054c0.839,2.844-1.507,5.293-8.133,7.13c-2.839,0.792-6.104,1.2-9.619,1.152c-0.192,0-0.377,0.023-0.55,0.06
				l-0.078-1.152l0.067-0.024l18.66-7.754C60.655,68.645,60.19,69.054,60.201,69.054z"/>
			<path fill-rule="evenodd" clip-rule="evenodd" fill="#8B5E3C" stroke="#343841" stroke-width="0.4" stroke-miterlimit="10" d="
				M41.899,77.396c-1.092,0.18-1.942,0.769-3.294,1.081c0.097-0.708,1.256-0.768,1.632-1.309c0.011-0.036,0.214-0.252,0.193-0.432
				c-0.077-0.192-0.125-0.384-0.155-0.564l1.546,0.047v0.024L41.899,77.396z"/>
		</g>
	</g>
</g>
<g id="mern-node">
	<path fill="#39B54A" stroke="#39B54A" stroke-width="0.25" stroke-miterlimit="10" d="M147.863,46.784L71.742,71.082
		c-1.456,0.458-3.809,0.367-5.228-0.204L3.082,45.369c-1.203-0.457-1.382-1.26-1.547-1.963c-0.134-0.573,0.095-1.824,0.095-1.824
		l67.466,27.279l75.994-24.246c0,0,2.174-0.649,3.242-1.029c0.245-0.106,0.941-0.527,0.941-0.527s0.32,1.239,0.167,1.971
		C149.338,45.52,149.31,46.326,147.863,46.784z"/>
	<g>
		<path fill="#343841" d="M147.587,42.179c1.602,0.394,1.698,1.103,0.213,1.576s-2.702,0.86-2.705,0.86s-1.291,0.41-2.863,0.912
			L71.954,67.949c-1.572,0.502-4.111,0.408-5.642-0.207L8.3,44.411c-1.53-0.615-3.912-1.573-5.292-2.127
			c-1.379-0.555-1.186-1.281,0.431-1.614l72.066-14.857c1.616-0.333,4.25-0.284,5.852,0.109L147.587,42.179z"/>
		<path fill="none" stroke="#39B54A" stroke-miterlimit="10" d="M147.587,42.179c1.602,0.394,1.698,1.103,0.213,1.576
			s-2.702,0.86-2.705,0.86s-1.291,0.41-2.863,0.912L71.954,67.949c-1.572,0.502-4.111,0.408-5.642-0.207L8.3,44.411
			c-1.53-0.615-3.912-1.573-5.292-2.127c-1.379-0.555-1.186-1.281,0.431-1.614l72.066-14.857c1.616-0.333,4.25-0.284,5.852,0.109
			L147.587,42.179z"/>
	</g>
	<g>
		<g>
			<path fill-rule="evenodd" clip-rule="evenodd" fill="#39B54A" stroke="#343841" stroke-width="0.4" stroke-miterlimit="10" d="
				M45.477,48.311l0.574,2.789l10.269-5.287c-0.116-0.039-0.251-0.05-0.446-0.046c-0.091-0.011-9.218,2.129-9.796,2.274
				c-0.145,0.035-0.295,0.053-0.415,0.143C45.604,48.197,45.519,48.293,45.477,48.311z"/>
			<path fill-rule="evenodd" clip-rule="evenodd" fill="#39B54A" stroke="#343841" stroke-width="0.4" stroke-miterlimit="10" d="
				M41.03,53.679c-0.008,0.104,0.086,0.183,0.233,0.249c0.39,0.205,4.955,2.342,5.401,2.515c0.113,0.071,0.229,0.122,0.459,0.12
				l0.017-0.002l10.279-5.343l4.764-2.473c0.032-0.107-0.039-0.194-0.216-0.265c-0.51-0.286-5.266-2.524-5.556-2.663
				c-0.022-0.01-0.045-0.021-0.072-0.017l-10.289,5.297L41.03,53.679z"/>
			<path fill-rule="evenodd" clip-rule="evenodd" fill="#39B54A" stroke="#343841" stroke-width="0.4" stroke-miterlimit="10" d="
				M57.42,51.218l0.333,2.829c0.106-0.05,4.119-4.858,4.402-5.212C62.199,48.779,57.42,51.218,57.42,51.218z"/>
			<path fill-rule="evenodd" clip-rule="evenodd" fill="#39B54A" stroke="#343841" stroke-width="0.4" stroke-miterlimit="10" d="
				M47.35,56.489c0.192,0.029,6.665-1.467,9.816-2.212c0.151-0.043,0.262-0.069,0.401-0.137l0.003-0.007
				c0.062-0.025,0.132-0.053,0.183-0.085l-0.333-2.829L47.35,56.489z"/>
		</g>
		<path fill="#39B54A" stroke="#343841" stroke-width="0.4" stroke-miterlimit="10" d="M41.126,53.374
			c-0.061,0.079-0.104,0.147-0.096,0.204l5.021-2.479l-0.601-2.817C45.286,48.359,41.363,53.032,41.126,53.374z"/>
		<path fill="#39B54A" stroke="#343841" stroke-width="0.4" stroke-miterlimit="10" d="M57.411,51.148"/>
	</g>
</g>
<g id="mern-react">
	<path fill="#00AEEF" stroke="#00AEEF" stroke-width="0.25" stroke-miterlimit="10" d="M147.863,22.173L71.742,46.471
		c-1.456,0.458-3.809,0.366-5.228-0.204L3.082,20.758c-1.203-0.457-1.382-1.261-1.547-1.963c-0.134-0.573,0.095-1.825,0.095-1.825
		l67.466,27.28l75.994-24.246c0,0,2.174-0.65,3.242-1.03c0.245-0.106,0.941-0.527,0.941-0.527s0.32,1.239,0.167,1.97
		C149.338,20.908,149.31,21.715,147.863,22.173z"/>
	<g>
		<path fill="#343841" d="M147.587,17.568c1.602,0.394,1.698,1.103,0.213,1.576s-2.702,0.86-2.705,0.86s-1.291,0.41-2.863,0.912
			L71.954,43.338c-1.572,0.502-4.111,0.408-5.642-0.208L8.3,19.8c-1.53-0.615-3.912-1.573-5.292-2.127
			c-1.379-0.555-1.186-1.281,0.431-1.614L75.505,1.201c1.616-0.333,4.25-0.284,5.852,0.109L147.587,17.568z"/>
		<path fill="none" stroke="#00AEEF" stroke-miterlimit="10" d="M147.587,17.568c1.602,0.394,1.698,1.103,0.213,1.576
			s-2.702,0.86-2.705,0.86s-1.291,0.41-2.863,0.912L71.954,43.338c-1.572,0.502-4.111,0.408-5.642-0.208L8.3,19.8
			c-1.53-0.615-3.912-1.573-5.292-2.127c-1.379-0.555-1.186-1.281,0.431-1.614L75.505,1.201c1.616-0.333,4.25-0.284,5.852,0.109
			L147.587,17.568z"/>
	</g>
	<g>
		<path fill-rule="evenodd" clip-rule="evenodd" fill="none" stroke="#00AEEF" stroke-width="0.75" stroke-miterlimit="10" d="
			M57.175,25.783c5.952-2.528,9.242-5.65,7.346-6.972c-1.897-1.321-8.256-0.343-14.209,2.186c-5.955,2.529-9.244,5.65-7.349,6.972
			C44.859,29.291,51.221,28.313,57.175,25.783z"/>
		<path fill-rule="evenodd" clip-rule="evenodd" fill="none" stroke="#00AEEF" stroke-width="0.75" stroke-miterlimit="10" d="
			M51.563,26.288c6.879,1.376,13.43,1.194,14.633-0.406c1.205-1.6-3.396-4.013-10.274-5.389c-6.875-1.375-13.427-1.195-14.633,0.406
			C40.086,22.5,44.684,24.912,51.563,26.288z"/>
		<path fill-rule="evenodd" clip-rule="evenodd" fill="none" stroke="#00AEEF" stroke-width="0.75" stroke-miterlimit="10" d="
			M48.218,23.92c0.898,3.955,4.173,6.941,7.313,6.667c3.138-0.274,4.954-3.702,4.053-7.658c-0.899-3.956-4.174-6.938-7.313-6.667
			C49.133,16.536,47.317,19.964,48.218,23.92z"/>
		<path fill-rule="evenodd" clip-rule="evenodd" fill="#00AEEF" d="M56.234,23.904c-0.541,0.706-2.027,1.063-3.315,0.799
			c-1.29-0.265-1.896-1.051-1.354-1.756c0.543-0.706,2.026-1.064,3.316-0.799C56.171,22.412,56.777,23.198,56.234,23.904z"/>
	</g>
</g>
</svg>
