<?xml version="1.0" encoding="utf-8"?>
<!-- Generator: Adobe Illustrator 16.0.0, SVG Export Plug-In . SVG Version: 6.00 Build 0)  -->
<!DOCTYPE svg PUBLIC "-//W3C//DTD SVG 1.1//EN" "http://www.w3.org/Graphics/SVG/1.1/DTD/svg11.dtd">
<svg version="1.1" id="Layer_1" xmlns="http://www.w3.org/2000/svg" xmlns:xlink="http://www.w3.org/1999/xlink" x="0px" y="0px"
	 width="154px" height="118.667px" viewBox="0 0 154 118.667" enable-background="new 0 0 154 118.667" xml:space="preserve">
<rect width="154" height="120"/>
<radialGradient id="SVGID_1_" cx="34.3203" cy="46.8364" r="1.4854" gradientUnits="userSpaceOnUse">
	<stop  offset="0" style="stop-color:#FFFFFF"/>
	<stop  offset="0.1672" style="stop-color:#FFFFFF;stop-opacity:0.6512"/>
	<stop  offset="1" style="stop-color:#FFFFFF;stop-opacity:0"/>
</radialGradient>
<path fill="url(#SVGID_1_)" d="M34.32,48.322c0,0-0.059-0.06-0.154-0.155C34.118,48.12,34.062,48.063,34,48
	c-0.092-0.488-0.467-0.639-0.843-0.843c-0.063-0.062-0.119-0.118-0.167-0.166c-0.095-0.095-0.154-0.154-0.154-0.154
	s0.059-0.059,0.154-0.154c0.048-0.048,0.104-0.104,0.167-0.166c0.376-0.205,0.751-0.355,0.843-0.843
	c0.062-0.063,0.118-0.12,0.166-0.167c0.095-0.095,0.154-0.155,0.154-0.155s0.06,0.06,0.155,0.155
	c0.047,0.047,0.104,0.104,0.166,0.167c0.092,0.488,0.467,0.639,0.843,0.843c0.063,0.062,0.12,0.118,0.167,0.166
	c0.095,0.095,0.155,0.154,0.155,0.154s-0.06,0.06-0.155,0.154c-0.047,0.048-0.104,0.104-0.167,0.166
	c-0.376,0.205-0.751,0.355-0.843,0.843c-0.062,0.063-0.118,0.12-0.166,0.167C34.38,48.262,34.32,48.322,34.32,48.322z"/>
<radialGradient id="SVGID_2_" cx="85.1797" cy="9.2354" r="1.4854" gradientUnits="userSpaceOnUse">
	<stop  offset="0" style="stop-color:#FFFFFF"/>
	<stop  offset="0.1672" style="stop-color:#FFFFFF;stop-opacity:0.6512"/>
	<stop  offset="1" style="stop-color:#FFFFFF;stop-opacity:0"/>
</radialGradient>
<path fill="url(#SVGID_2_)" d="M85.18,10.721c0,0-0.059-0.06-0.154-0.155c-0.048-0.047-0.104-0.104-0.166-0.167
	c-0.092-0.488-0.467-0.639-0.843-0.843c-0.063-0.062-0.119-0.118-0.167-0.166c-0.095-0.095-0.154-0.154-0.154-0.154
	s0.059-0.059,0.154-0.154c0.048-0.048,0.104-0.104,0.167-0.166c0.376-0.205,0.751-0.355,0.843-0.843
	c0.062-0.063,0.118-0.12,0.166-0.167C85.121,7.81,85.18,7.75,85.18,7.75s0.06,0.06,0.155,0.155c0.047,0.047,0.104,0.104,0.166,0.167
	c0.092,0.488,0.467,0.639,0.843,0.843c0.063,0.062,0.12,0.118,0.167,0.166c0.095,0.095,0.155,0.154,0.155,0.154
	s-0.06,0.06-0.155,0.154c-0.047,0.048-0.104,0.104-0.167,0.166c-0.376,0.205-0.751,0.355-0.843,0.843
	c-0.062,0.063-0.118,0.12-0.166,0.167C85.239,10.661,85.18,10.721,85.18,10.721z"/>
<radialGradient id="SVGID_3_" cx="99.1797" cy="50.8364" r="1.4854" gradientUnits="userSpaceOnUse">
	<stop  offset="0" style="stop-color:#FFFFFF"/>
	<stop  offset="0.1672" style="stop-color:#FFFFFF;stop-opacity:0.6512"/>
	<stop  offset="1" style="stop-color:#FFFFFF;stop-opacity:0"/>
</radialGradient>
<path fill="url(#SVGID_3_)" d="M99.18,52.322c0,0-0.059-0.06-0.154-0.155c-0.048-0.047-0.104-0.104-0.166-0.167
	c-0.092-0.488-0.467-0.639-0.843-0.843c-0.063-0.062-0.119-0.118-0.167-0.166c-0.095-0.095-0.154-0.154-0.154-0.154
	s0.059-0.059,0.154-0.154c0.048-0.048,0.104-0.104,0.167-0.166c0.376-0.205,0.751-0.355,0.843-0.843
	c0.062-0.063,0.118-0.12,0.166-0.167c0.095-0.095,0.154-0.155,0.154-0.155s0.06,0.06,0.155,0.155
	c0.047,0.047,0.104,0.104,0.166,0.167c0.092,0.488,0.467,0.639,0.843,0.843c0.063,0.062,0.12,0.118,0.167,0.166
	c0.095,0.095,0.155,0.154,0.155,0.154s-0.06,0.06-0.155,0.154c-0.047,0.048-0.104,0.104-0.167,0.166
	C99.967,51.361,99.592,51.512,99.5,52c-0.062,0.063-0.118,0.12-0.166,0.167C99.239,52.262,99.18,52.322,99.18,52.322z"/>
<radialGradient id="SVGID_4_" cx="17.7803" cy="112.9297" r="1.4851" gradientUnits="userSpaceOnUse">
	<stop  offset="0" style="stop-color:#FFFFFF"/>
	<stop  offset="0.1672" style="stop-color:#FFFFFF;stop-opacity:0.6512"/>
	<stop  offset="1" style="stop-color:#FFFFFF;stop-opacity:0"/>
</radialGradient>
<path fill="url(#SVGID_4_)" d="M17.78,114.415c0,0-0.059-0.06-0.154-0.155c-0.048-0.047-0.104-0.104-0.166-0.167
	c-0.092-0.488-0.467-0.639-0.843-0.843c-0.063-0.062-0.119-0.118-0.167-0.166c-0.095-0.095-0.154-0.154-0.154-0.154
	s0.059-0.059,0.154-0.154c0.048-0.048,0.104-0.104,0.167-0.166c0.376-0.205,0.751-0.355,0.843-0.843
	c0.062-0.063,0.118-0.12,0.166-0.167c0.095-0.095,0.154-0.155,0.154-0.155s0.06,0.06,0.155,0.155
	c0.047,0.047,0.104,0.104,0.166,0.167c0.092,0.488,0.467,0.639,0.843,0.843c0.063,0.062,0.12,0.118,0.167,0.166
	c0.095,0.095,0.155,0.154,0.155,0.154s-0.06,0.06-0.155,0.154c-0.047,0.048-0.104,0.104-0.167,0.166
	c-0.376,0.205-0.751,0.355-0.843,0.843c-0.062,0.063-0.118,0.12-0.166,0.167C17.839,114.355,17.78,114.415,17.78,114.415z"/>
<radialGradient id="SVGID_5_" cx="40" cy="20.7354" r="1.4851" gradientUnits="userSpaceOnUse">
	<stop  offset="0" style="stop-color:#FFFFFF"/>
	<stop  offset="0.1672" style="stop-color:#FFFFFF;stop-opacity:0.6512"/>
	<stop  offset="1" style="stop-color:#FFFFFF;stop-opacity:0"/>
</radialGradient>
<path fill="url(#SVGID_5_)" d="M40,22.221c0,0-0.059-0.06-0.154-0.155c-0.048-0.047-0.104-0.104-0.166-0.167
	c-0.092-0.488-0.467-0.639-0.843-0.843c-0.063-0.062-0.119-0.118-0.167-0.166c-0.095-0.095-0.154-0.154-0.154-0.154
	s0.059-0.059,0.154-0.154c0.048-0.048,0.104-0.104,0.167-0.166c0.376-0.205,0.751-0.355,0.843-0.843
	c0.062-0.063,0.118-0.12,0.166-0.167C39.94,19.31,40,19.25,40,19.25s0.06,0.06,0.155,0.155c0.047,0.047,0.104,0.104,0.166,0.167
	c0.092,0.488,0.467,0.639,0.843,0.843c0.063,0.062,0.12,0.118,0.167,0.166c0.095,0.095,0.155,0.154,0.155,0.154
	s-0.06,0.06-0.155,0.154c-0.047,0.048-0.104,0.104-0.167,0.166c-0.376,0.205-0.751,0.355-0.843,0.843
	c-0.062,0.063-0.118,0.12-0.166,0.167C40.059,22.161,40,22.221,40,22.221z"/>
<radialGradient id="SVGID_6_" cx="13.8369" cy="72.4297" r="1.4851" gradientUnits="userSpaceOnUse">
	<stop  offset="0" style="stop-color:#FFFFFF"/>
	<stop  offset="0.1672" style="stop-color:#FFFFFF;stop-opacity:0.6512"/>
	<stop  offset="1" style="stop-color:#FFFFFF;stop-opacity:0"/>
</radialGradient>
<path fill="url(#SVGID_6_)" d="M13.836,73.915c0,0-0.059-0.06-0.154-0.155c-0.048-0.047-0.104-0.104-0.166-0.167
	c-0.092-0.488-0.467-0.639-0.843-0.843c-0.063-0.062-0.119-0.118-0.167-0.166c-0.095-0.095-0.154-0.154-0.154-0.154
	s0.059-0.059,0.154-0.154c0.048-0.048,0.104-0.104,0.167-0.166c0.376-0.205,0.751-0.355,0.843-0.843
	c0.062-0.063,0.118-0.12,0.166-0.167c0.095-0.095,0.154-0.155,0.154-0.155s0.06,0.06,0.155,0.155
	c0.047,0.047,0.104,0.104,0.166,0.167c0.092,0.488,0.467,0.639,0.843,0.843c0.063,0.062,0.12,0.118,0.167,0.166
	c0.095,0.095,0.155,0.154,0.155,0.154s-0.06,0.06-0.155,0.154C15.12,72.632,15.063,72.688,15,72.75
	c-0.376,0.205-0.751,0.355-0.843,0.843c-0.062,0.063-0.118,0.12-0.166,0.167C13.896,73.855,13.836,73.915,13.836,73.915z"/>
<radialGradient id="SVGID_7_" cx="130.1504" cy="14.8364" r="1.4851" gradientUnits="userSpaceOnUse">
	<stop  offset="0" style="stop-color:#FFFFFF"/>
	<stop  offset="0.1672" style="stop-color:#FFFFFF;stop-opacity:0.6512"/>
	<stop  offset="1" style="stop-color:#FFFFFF;stop-opacity:0"/>
</radialGradient>
<path fill="url(#SVGID_7_)" d="M130.15,16.322c0,0-0.059-0.06-0.154-0.155c-0.048-0.047-0.104-0.104-0.166-0.167
	c-0.092-0.488-0.467-0.639-0.843-0.843c-0.063-0.062-0.119-0.118-0.167-0.166c-0.095-0.095-0.154-0.154-0.154-0.154
	s0.059-0.059,0.154-0.154c0.048-0.048,0.104-0.104,0.167-0.166c0.376-0.205,0.751-0.355,0.843-0.843
	c0.062-0.063,0.118-0.12,0.166-0.167c0.095-0.095,0.154-0.155,0.154-0.155s0.06,0.06,0.155,0.155
	c0.047,0.047,0.104,0.104,0.166,0.167c0.092,0.488,0.467,0.639,0.843,0.843c0.063,0.062,0.12,0.118,0.167,0.166
	c0.095,0.095,0.155,0.154,0.155,0.154s-0.06,0.06-0.155,0.154c-0.047,0.048-0.104,0.104-0.167,0.166
	c-0.376,0.205-0.751,0.355-0.843,0.843c-0.062,0.063-0.118,0.12-0.166,0.167C130.209,16.262,130.15,16.322,130.15,16.322z"/>
<radialGradient id="SVGID_8_" cx="141.3369" cy="107.9297" r="1.4851" gradientUnits="userSpaceOnUse">
	<stop  offset="0" style="stop-color:#FFFFFF"/>
	<stop  offset="0.1672" style="stop-color:#FFFFFF;stop-opacity:0.6512"/>
	<stop  offset="1" style="stop-color:#FFFFFF;stop-opacity:0"/>
</radialGradient>
<path fill="url(#SVGID_8_)" d="M141.336,109.415c0,0-0.059-0.06-0.154-0.155c-0.048-0.047-0.104-0.104-0.166-0.167
	c-0.092-0.488-0.467-0.639-0.843-0.843c-0.063-0.062-0.119-0.118-0.167-0.166c-0.095-0.095-0.154-0.154-0.154-0.154
	s0.059-0.059,0.154-0.154c0.048-0.048,0.104-0.104,0.167-0.166c0.376-0.205,0.751-0.355,0.843-0.843
	c0.062-0.063,0.118-0.12,0.166-0.167c0.095-0.095,0.154-0.155,0.154-0.155s0.06,0.06,0.155,0.155
	c0.047,0.047,0.104,0.104,0.166,0.167c0.092,0.488,0.467,0.639,0.843,0.843c0.063,0.062,0.12,0.118,0.167,0.166
	c0.095,0.095,0.155,0.154,0.155,0.154s-0.06,0.06-0.155,0.154c-0.047,0.048-0.104,0.104-0.167,0.166
	c-0.376,0.205-0.751,0.355-0.843,0.843c-0.062,0.063-0.118,0.12-0.166,0.167C141.396,109.355,141.336,109.415,141.336,109.415z"/>
<radialGradient id="SVGID_9_" cx="127.1797" cy="72.8364" r="1.4854" gradientUnits="userSpaceOnUse">
	<stop  offset="0" style="stop-color:#FFFFFF"/>
	<stop  offset="0.1672" style="stop-color:#FFFFFF;stop-opacity:0.6512"/>
	<stop  offset="1" style="stop-color:#FFFFFF;stop-opacity:0"/>
</radialGradient>
<path fill="url(#SVGID_9_)" d="M127.18,74.322c0,0-0.059-0.06-0.154-0.155c-0.048-0.047-0.104-0.104-0.166-0.167
	c-0.092-0.488-0.467-0.639-0.843-0.843c-0.063-0.062-0.119-0.118-0.167-0.166c-0.095-0.095-0.154-0.154-0.154-0.154
	s0.059-0.059,0.154-0.154c0.048-0.048,0.104-0.104,0.167-0.166c0.376-0.205,0.751-0.355,0.843-0.843
	c0.062-0.063,0.118-0.12,0.166-0.167c0.095-0.095,0.154-0.155,0.154-0.155s0.06,0.06,0.155,0.155
	c0.047,0.047,0.104,0.104,0.166,0.167c0.092,0.488,0.467,0.639,0.843,0.843c0.063,0.062,0.12,0.118,0.167,0.166
	c0.095,0.095,0.155,0.154,0.155,0.154s-0.06,0.06-0.155,0.154c-0.047,0.048-0.104,0.104-0.167,0.166
	c-0.376,0.205-0.751,0.355-0.843,0.843c-0.062,0.063-0.118,0.12-0.166,0.167C127.239,74.262,127.18,74.322,127.18,74.322z"/>
<radialGradient id="SVGID_10_" cx="66.041" cy="74.3218" r="1.4851" gradientUnits="userSpaceOnUse">
	<stop  offset="0" style="stop-color:#FFFFFF"/>
	<stop  offset="0.1672" style="stop-color:#FFFFFF;stop-opacity:0.6512"/>
	<stop  offset="1" style="stop-color:#FFFFFF;stop-opacity:0"/>
</radialGradient>
<path fill="url(#SVGID_10_)" d="M66.041,75.807c0,0-0.059-0.06-0.154-0.155c-0.048-0.047-0.104-0.104-0.166-0.167
	c-0.092-0.488-0.467-0.639-0.843-0.843c-0.063-0.062-0.119-0.118-0.167-0.166c-0.095-0.095-0.154-0.154-0.154-0.154
	s0.059-0.059,0.154-0.154c0.048-0.048,0.104-0.104,0.167-0.166c0.376-0.205,0.751-0.355,0.843-0.843
	c0.062-0.063,0.118-0.12,0.166-0.167c0.095-0.095,0.154-0.155,0.154-0.155s0.06,0.06,0.155,0.155
	c0.047,0.047,0.104,0.104,0.166,0.167c0.092,0.488,0.467,0.639,0.843,0.843c0.063,0.062,0.12,0.118,0.167,0.166
	c0.095,0.095,0.155,0.154,0.155,0.154s-0.06,0.06-0.155,0.154c-0.047,0.048-0.104,0.104-0.167,0.166
	c-0.376,0.205-0.751,0.355-0.843,0.843c-0.062,0.063-0.118,0.12-0.166,0.167C66.1,75.748,66.041,75.807,66.041,75.807z"/>
<radialGradient id="SVGID_11_" cx="152.5146" cy="40.623" r="1.4854" gradientUnits="userSpaceOnUse">
	<stop  offset="0" style="stop-color:#FFFFFF"/>
	<stop  offset="0.1672" style="stop-color:#FFFFFF;stop-opacity:0.6512"/>
	<stop  offset="1" style="stop-color:#FFFFFF;stop-opacity:0"/>
</radialGradient>
<path fill="url(#SVGID_11_)" d="M152.515,42.108c0,0-0.059-0.06-0.154-0.155c-0.048-0.047-0.104-0.104-0.166-0.167
	c-0.092-0.488-0.467-0.639-0.843-0.843c-0.063-0.062-0.119-0.118-0.167-0.166c-0.095-0.095-0.154-0.154-0.154-0.154
	s0.059-0.059,0.154-0.154c0.048-0.048,0.104-0.104,0.167-0.166c0.376-0.205,0.751-0.355,0.843-0.843
	c0.062-0.063,0.118-0.12,0.166-0.167c0.095-0.095,0.154-0.155,0.154-0.155s0.06,0.06,0.155,0.155
	c0.047,0.047,0.104,0.104,0.166,0.167c0.092,0.488,0.467,0.639,0.843,0.843c0.063,0.062,0.12,0.118,0.167,0.166
	c0.095,0.095,0.155,0.154,0.155,0.154s-0.06,0.06-0.155,0.154c-0.047,0.048-0.104,0.104-0.167,0.166
	c-0.376,0.205-0.751,0.355-0.843,0.843c-0.062,0.063-0.118,0.12-0.166,0.167C152.574,42.049,152.515,42.108,152.515,42.108z"/>
<radialGradient id="SVGID_12_" cx="73.9141" cy="117.1816" r="1.4851" gradientUnits="userSpaceOnUse">
	<stop  offset="0" style="stop-color:#FFFFFF"/>
	<stop  offset="0.1672" style="stop-color:#FFFFFF;stop-opacity:0.6512"/>
	<stop  offset="1" style="stop-color:#FFFFFF;stop-opacity:0"/>
</radialGradient>
<path fill="url(#SVGID_12_)" d="M73.914,118.667c0,0-0.059-0.06-0.154-0.155c-0.048-0.047-0.104-0.104-0.166-0.167
	c-0.092-0.488-0.467-0.639-0.843-0.843c-0.063-0.062-0.119-0.118-0.167-0.166c-0.095-0.095-0.154-0.154-0.154-0.154
	s0.059-0.059,0.154-0.154c0.048-0.048,0.104-0.104,0.167-0.166c0.376-0.205,0.751-0.355,0.843-0.843
	c0.062-0.063,0.118-0.12,0.166-0.167c0.095-0.095,0.154-0.155,0.154-0.155s0.06,0.06,0.155,0.155
	c0.047,0.047,0.104,0.104,0.166,0.167c0.092,0.488,0.467,0.639,0.843,0.843c0.063,0.062,0.12,0.118,0.167,0.166
	c0.095,0.095,0.155,0.154,0.155,0.154s-0.06,0.06-0.155,0.154c-0.047,0.048-0.104,0.104-0.167,0.166
	c-0.376,0.205-0.751,0.355-0.843,0.843c-0.062,0.063-0.118,0.12-0.166,0.167C73.973,118.607,73.914,118.667,73.914,118.667z"/>
<radialGradient id="SVGID_13_" cx="9" cy="7.75" r="1.4851" gradientUnits="userSpaceOnUse">
	<stop  offset="0" style="stop-color:#FFFFFF"/>
	<stop  offset="0.1672" style="stop-color:#FFFFFF;stop-opacity:0.6512"/>
	<stop  offset="1" style="stop-color:#FFFFFF;stop-opacity:0"/>
</radialGradient>
<path fill="url(#SVGID_13_)" d="M9,9.235c0,0-0.059-0.06-0.154-0.155C8.797,9.033,8.741,8.977,8.679,8.914
	C8.587,8.425,8.212,8.275,7.836,8.07C7.773,8.008,7.717,7.952,7.669,7.904C7.574,7.81,7.515,7.75,7.515,7.75
	s0.059-0.059,0.154-0.154C7.717,7.548,7.773,7.492,7.836,7.43c0.376-0.205,0.751-0.355,0.843-0.843
	c0.062-0.063,0.118-0.12,0.166-0.167C8.94,6.324,9,6.265,9,6.265s0.06,0.06,0.155,0.155C9.202,6.467,9.258,6.523,9.32,6.586
	c0.092,0.488,0.467,0.639,0.843,0.843c0.063,0.062,0.12,0.118,0.167,0.166c0.095,0.095,0.155,0.154,0.155,0.154
	s-0.06,0.06-0.155,0.154c-0.047,0.048-0.104,0.104-0.167,0.166C9.787,8.275,9.412,8.425,9.32,8.914
	c-0.062,0.063-0.118,0.12-0.166,0.167C9.059,9.176,9,9.235,9,9.235z"/>
</svg>
