<?xml version="1.0" encoding="utf-8"?>
<!-- Generator: Adobe Illustrator 16.0.0, SVG Export Plug-In . SVG Version: 6.00 Build 0)  -->
<!DOCTYPE svg PUBLIC "-//W3C//DTD SVG 1.1//EN" "http://www.w3.org/Graphics/SVG/1.1/DTD/svg11.dtd">
<svg version="1.1" id="graphics-design" xmlns="http://www.w3.org/2000/svg" xmlns:xlink="http://www.w3.org/1999/xlink" x="0px" y="0px"
	 width="250px" height="250px" viewBox="-50 -50 350 340" enable-background="new 0 0 250 241.371" xml:space="preserve">
<path id="gd-pen-tool" fill-rule="evenodd" clip-rule="evenodd" fill="#414042" d="M158.294,203.146c5.081,0,9.711,0,14.605,0
	c0,12.959,0,25.42,0,38.226c-31.751,0-63.452,0-95.454,0c0-12.619,0-25.072,0-38.155c4.726,0,9.333,0,14.418,0
	c-1.386-14.713-2.962-28.686-9.489-41.474c-1.159-2.271-3.661-4.225-6.002-5.434c-2.974-1.534-4.44-3.515-3.833-6.653
	c0.53-2.739,1.264-5.525,2.444-8.039c14.293-30.46,28.685-60.874,43.064-91.292c0.235-0.498,0.637-0.916,1.509-2.143
	c0.13,2.28,0.272,3.611,0.273,4.941c0.013,22.884-0.022,45.768,0.049,68.653c0.009,2.839-0.465,4.734-3.308,6.377
	c-6.222,3.595-8.697,10.822-6.706,17.492c2.028,6.795,8.019,11.393,14.947,11.471c6.887,0.077,13.224-4.555,15.239-11.139
	c2.039-6.657-0.566-13.621-6.295-17.854c-1.514-1.119-3.365-3.121-3.378-4.732c-0.214-24.916-0.149-49.833-0.149-75.594
	c0.881,1.083,1.419,1.535,1.694,2.112c14.04,29.541,28.07,59.086,42.058,88.652c1.134,2.398,2.04,4.916,2.902,7.43
	c2.065,6.016,1.524,6.817-3.99,10.325c-2.004,1.273-3.728,3.442-4.845,5.585C161.413,174.646,159.845,188.602,158.294,203.146z"/>
<g id="gd-anchors">
	<path id="gd-line-path" fill="none" stroke="#414042" stroke-width="4" stroke-miterlimit="10" d="M9.067,132.729c0,0-6.37-115.171,115.893-122.802
		c122.911,8.571,116.572,122.802,116.572,122.802"/>
	<rect x="0.001" y="114.186" fill="#414042" width="18.811" height="18.808"/>
	<rect x="231.189" y="114.186" fill="#414042" width="18.812" height="18.808"/>
</g>
<g id="gd-handles">
	<line id="gd-handle-line" fill="none" stroke="#414042" stroke-width="4" stroke-miterlimit="10" x1="5.366" y1="10.868" x2="244.554" y2="10.868"/>
	<rect x="115.408" fill="#414042" width="18.812" height="18.812"/>
	<circle fill="#414042" cx="12.421" cy="10.868" r="9.406"/>
	<circle fill="#414042" cx="238.297" cy="10.868" r="9.406"/>
</g>
</svg>
