<?xml version="1.0" encoding="utf-8"?>
<!-- Generator: Adobe Illustrator 16.0.0, SVG Export Plug-In . SVG Version: 6.00 Build 0)  -->
<!DOCTYPE svg PUBLIC "-//W3C//DTD SVG 1.1//EN" "http://www.w3.org/Graphics/SVG/1.1/DTD/svg11.dtd">
<svg version="1.1" id="Layer_1" xmlns="http://www.w3.org/2000/svg" xmlns:xlink="http://www.w3.org/1999/xlink" x="0px" y="0px"
	 width="107.473px" height="107.473px" viewBox="0 0 107.473 107.473" enable-background="new 0 0 107.473 107.473"
	 xml:space="preserve">
<pattern  x="-93.189" y="-78.459" width="104.471" height="102.415" patternUnits="userSpaceOnUse" id="New_Pattern_8" viewBox="21.165 -114.144 104.471 102.415" overflow="visible">
	<g>
		<polygon fill="none" points="21.165,-114.144 125.636,-114.144 125.636,-11.729 21.165,-11.729 		"/>
		<g>
			<path fill="#F15A29" d="M44.463-13.067c-1.516-0.607-3.256-0.11-4.588,0.693c-2.689,1.624-4.758,5.392-3.104,8.426
				c2.373,4.356,8.498,2.632,9.713-1.636c1.205-4.236-6.127-7.165-6.922-2.516c-0.416,2.419,1.695,4.169,3.771,2.598
				c0.732-0.556-0.004-1.811-0.75-1.247c-1.109,0.838-1.818,0.141-1.592-1.158c0.354-2.068,3.127-0.893,3.889,0.24
				c1.123,1.669-0.779,3.771-2.127,4.509c-1.578,0.866-3.664,0.051-4.645-1.373c-1.488-2.16,0.418-5.084,2.176-6.369
				c2.863-2.096,5.43-0.319,6.537,2.684c0.322,0.876,1.715,0.492,1.391-0.389C47.5-10.535,46.428-12.28,44.463-13.067z"/>
		</g>
		<g>
			<path fill="#E8BC07" d="M116.461-26.488c-1.146-1.356-2.13-2.823-4.082-2.918c-2.116-0.103-4.082,0.646-5.346,2.399
				c-1.231,1.708-1.723,3.48-0.545,5.336c0.875,1.38,2.93,3.045,4.625,3.118c1.718,0.073,3.514-0.496,4.276-2.172
				c0.621-1.367-0.143-3.481-1.431-4.23c-1.17-0.68-3.476-0.849-4.063,0.708c-0.44,1.167,0.099,2.879,1.624,2.306
				c0.681-0.256,0.793-0.986,0.551-1.489c0.079-0.004,0.156-0.004,0.238-0.022c0.509,0.075,0.864,0.339,1.063,0.792
				c0.651,1.044-0.174,1.781-1.135,2.067c-1.63,0.485-3.482-1.237-4.283-2.5c-1.184-1.865,1.775-3.955,3.187-4.279
				c1.969-0.452,2.824,1.016,3.907,2.297C115.881-24.087,117.288-25.509,116.461-26.488z"/>
			<path fill="#F15A29" d="M117.395-19.129c-0.971,1.72-2.299,3.239-4.357,3.463c-1.777,0.194-3.518-0.688-4.975-1.615
				c-3.209-2.044-5.205-5.179-7.559-8.069c-2.152-2.642-5.014-3.656-8.305-2.653c-3.564,1.087-5.035,4.359-5.629,7.788
				c-0.16,0.92,1.238,1.295,1.4,0.371c0.309-1.787,0.754-3.58,1.926-5.006c1.318-1.603,3.525-2.209,5.523-2.087
				c3.334,0.202,5.23,4.328,7.119,6.582c2.137,2.55,4.898,4.937,8.125,5.89c3.488,1.028,6.322-0.985,7.99-3.946
				C119.114-19.229,117.854-19.944,117.395-19.129z"/>
			<path fill="#F15A29" d="M154.252-27.512c-0.207,4.476-5.193,6.675-9.127,6.646c-3.68-0.025-6.029-4.27-8.318-6.6
				c-2.605-2.657-5.818-4.06-9.479-2.935c-3.658,1.124-5.371,4.751-5.545,8.358c-0.043,0.939,1.404,0.93,1.447-0.003
				c0.213-4.491,3.58-8.29,8.338-7.146c3.822,0.918,6.07,5.168,8.768,7.686c4.965,4.631,15.041,0.933,15.363-6.01
				C155.741-28.455,154.297-28.444,154.252-27.512z"/>
			<path fill="#E8BC07" d="M128.588-15.25c-3.606-0.964-4.625-5.49-2.975-8.458c1.592-2.865,7.114-4.975,9.153-1.401
				c0.639,1.12,2.367,0.112,1.727-1.01c-1.584-2.777-5.928-3.653-8.682-2.133c-3.508,1.936-5.905,5.504-4.729,9.571
				c1.178,4.072,4.226,5.938,8.381,5.567c3.988-0.355,5.108-5.318,4.548-8.516c-0.483-2.757-4.96-5.131-7.469-3.764
				c-2.658,1.447-4.371,5.63-1.645,8.041c2.037,1.801,6.361,0.861,6.455-2.295c0.095-3.203-4.192-4.146-4.77-0.815
				c-0.219,1.261,1.708,1.8,1.929,0.531c-0.529,1.755-1.33,2.037-2.402,0.844c-0.499-0.807-0.635-1.682-0.41-2.624
				c0.626-3.047,4.154-1.947,5.667-0.597c1.153,1.029,0.911,3.146,0.602,4.491C133.408-15.386,130.702-14.685,128.588-15.25z"/>
			<path fill="#F15A29" d="M132.065-27.256c-2.672-0.958-5.215,0.313-6.609,2.643c-1.189,1.991-1.043,4.447-0.131,6.512
				c2.123,4.793,8.932,3.579,9.416-1.578c0.24-2.594-2.098-4.384-4.508-4.083c-2.355,0.294-3.938,2.989-2.412,5.065
				c1.391,1.889,3.768,0.953,3.797-1.262c0.01-0.94-1.438-0.932-1.449,0.004c-0.012,1.009-0.736,1.018-1.266,0.297
				c-0.535-0.726-0.119-1.842,0.527-2.311c1.475-1.071,3.609-0.042,3.852,1.696c0.422,3.037-3.375,4.944-5.594,3.008
				c-2.008-1.751-2.029-4.863-0.754-6.992c2.041-3.41,6.346-1.487,8.188,1.028c2.193,2.995,0.992,6.972-1.311,9.491
				c-2.689,2.942-6.641,2.406-9.201-0.376c-4.004-4.353-4.359-11.109-8.762-15.178c-4.373-4.041-10.742-0.466-11.342,4.957
				c-0.551,4.966,5.459,8.411,9.73,6.668c5.336-2.18,1.756-11.002-3.619-8.938c-1.846,0.708-2.922,2.903-1.957,4.739
				c0.977,1.858,2.988,2.047,4.467,0.686c0.686-0.633-0.357-1.644-1.041-1.014c-0.9,0.831-1.896,0.478-2.268-0.664
				c-0.566-1.723,1.494-2.79,2.908-2.538c1.869,0.333,2.984,2.41,2.695,4.177c-0.229,1.4-1.291,2.179-2.592,2.462
				c-2.346,0.512-5.594-0.887-6.543-3.176c-1.402-3.39,1.303-7.268,4.76-7.656c3.285-0.37,5.357,2.849,6.662,5.389
				c1.307,2.551,2.289,5.258,3.631,7.795c1.377,2.604,3.311,5.043,6.223,5.897c2.998,0.88,5.873-0.505,7.801-2.801
				c1.854-2.206,2.828-5.366,2.145-8.213C136.87-24.208,134.581-26.355,132.065-27.256z"/>
		</g>
		<g>
			<path fill="#E8BC07" d="M64.226-16.247c-1.146-1.356-2.13-2.823-4.082-2.918c-2.116-0.103-4.082,0.646-5.346,2.399
				c-1.231,1.708-1.723,3.48-0.545,5.336c0.875,1.38,2.93,3.045,4.625,3.118c1.718,0.073,3.514-0.496,4.276-2.172
				c0.621-1.367-0.143-3.481-1.431-4.23c-1.17-0.68-3.476-0.849-4.063,0.708c-0.44,1.167,0.099,2.879,1.624,2.306
				c0.681-0.256,0.793-0.986,0.551-1.489c0.079-0.004,0.156-0.004,0.238-0.022c0.509,0.075,0.864,0.339,1.063,0.792
				c0.651,1.044-0.174,1.781-1.135,2.067c-1.63,0.485-3.482-1.237-4.283-2.5c-1.184-1.865,1.775-3.955,3.187-4.279
				c1.969-0.452,2.824,1.016,3.907,2.297C63.645-13.846,65.052-15.268,64.226-16.247z"/>
			<path fill="#F15A29" d="M65.159-8.888c-0.971,1.72-2.299,3.239-4.357,3.463c-1.777,0.194-3.518-0.688-4.975-1.615
				c-3.209-2.044-5.205-5.179-7.559-8.069c-2.152-2.642-5.014-3.656-8.305-2.653c-3.564,1.087-5.035,4.359-5.629,7.788
				c-0.16,0.92,1.238,1.295,1.4,0.371c0.309-1.787,0.754-3.58,1.926-5.006c1.318-1.603,3.525-2.209,5.523-2.087
				c3.334,0.202,5.23,4.328,7.119,6.582c2.137,2.55,4.898,4.937,8.125,5.89c3.488,1.028,6.322-0.985,7.99-3.946
				C66.878-8.988,65.618-9.703,65.159-8.888z"/>
			<path fill="#F15A29" d="M102.017-17.271c-0.207,4.476-5.193,6.675-9.127,6.646c-3.68-0.025-6.029-4.27-8.318-6.6
				c-2.605-2.657-5.818-4.06-9.479-2.935c-3.658,1.124-5.371,4.751-5.545,8.358c-0.043,0.939,1.404,0.93,1.447-0.003
				c0.213-4.491,3.58-8.29,8.338-7.146c3.822,0.918,6.07,5.168,8.768,7.686c4.965,4.631,15.041,0.933,15.363-6.01
				C103.505-18.213,102.062-18.203,102.017-17.271z"/>
			<path fill="#E8BC07" d="M100.351-17.33c-1.995-1.853-3.098-5.06-6.425-4.482c-2.835,0.492-4.344,3.488-3.795,6.211
				c0.591,2.934,4.68,3.095,6.533,1.227c2.153-2.17-0.208-5.938-3.025-4.279c-1.11,0.654-0.104,2.383,1.01,1.727
				c1.006,0.041,1.167,0.45,0.483,1.229c-0.258,0.179-0.535,0.322-0.831,0.431c-0.873,0.338-2.153,0.159-2.236-1.018
				c-0.093-1.311,0.282-2.64,1.451-3.346c2.401-1.449,4.064,2.455,5.42,3.715C99.88-15.04,101.298-16.451,100.351-17.33z"/>
			<path fill="#F15A29" d="M96.698-23.309c-1.516-0.607-3.256-0.11-4.588,0.693c-2.689,1.624-4.758,5.392-3.104,8.426
				c2.373,4.356,8.498,2.632,9.713-1.636c1.205-4.236-6.127-7.165-6.922-2.516c-0.416,2.419,1.695,4.169,3.771,2.598
				c0.732-0.556-0.004-1.811-0.75-1.247c-1.109,0.838-1.818,0.141-1.592-1.158c0.354-2.068,3.127-0.893,3.889,0.24
				c1.123,1.669-0.779,3.771-2.127,4.509c-1.578,0.866-3.664,0.051-4.645-1.373c-1.488-2.16,0.418-5.084,2.176-6.369
				c2.863-2.096,5.43-0.319,6.537,2.684c0.322,0.876,1.715,0.492,1.391-0.389C99.735-20.777,98.663-22.522,96.698-23.309z"/>
			<path fill="#E8BC07" d="M76.352-5.009c-3.606-0.964-4.625-5.49-2.975-8.458c1.592-2.865,7.114-4.975,9.153-1.401
				c0.639,1.12,2.367,0.112,1.727-1.01c-1.584-2.777-5.928-3.653-8.682-2.133c-3.508,1.936-5.905,5.504-4.729,9.571
				c1.178,4.072,4.226,5.938,8.381,5.567c3.988-0.355,5.108-5.318,4.548-8.516c-0.483-2.757-4.96-5.131-7.469-3.764
				c-2.658,1.447-4.371,5.63-1.645,8.041c2.037,1.801,6.361,0.861,6.455-2.295c0.095-3.203-4.192-4.146-4.77-0.815
				c-0.219,1.261,1.708,1.8,1.929,0.531c-0.529,1.755-1.33,2.037-2.402,0.844c-0.499-0.807-0.635-1.682-0.41-2.624
				c0.626-3.047,4.154-1.947,5.667-0.597c1.153,1.029,0.911,3.146,0.602,4.491C81.172-5.145,78.466-4.443,76.352-5.009z"/>
			<path fill="#F15A29" d="M79.829-17.015c-2.672-0.958-5.215,0.313-6.609,2.643c-1.189,1.991-1.043,4.447-0.131,6.512
				c2.123,4.793,8.932,3.579,9.416-1.578c0.24-2.594-2.098-4.384-4.508-4.083c-2.355,0.294-3.938,2.989-2.412,5.065
				c1.391,1.889,3.768,0.953,3.797-1.262c0.01-0.94-1.438-0.932-1.449,0.004c-0.012,1.009-0.736,1.018-1.266,0.297
				c-0.535-0.726-0.119-1.842,0.527-2.311c1.475-1.071,3.609-0.042,3.852,1.696c0.422,3.037-3.375,4.944-5.594,3.008
				c-2.008-1.751-2.029-4.863-0.754-6.992c2.041-3.41,6.346-1.487,8.188,1.028c2.193,2.995,0.992,6.972-1.311,9.491
				c-2.689,2.942-6.641,2.406-9.201-0.376c-4.004-4.353-4.359-11.109-8.762-15.178c-4.373-4.041-10.742-0.466-11.342,4.957
				c-0.551,4.966,5.459,8.411,9.73,6.668c5.336-2.18,1.756-11.002-3.619-8.938c-1.846,0.708-2.922,2.903-1.957,4.739
				c0.977,1.858,2.988,2.047,4.467,0.686c0.686-0.633-0.357-1.644-1.041-1.014c-0.9,0.831-1.896,0.478-2.268-0.664
				c-0.566-1.723,1.494-2.79,2.908-2.538c1.869,0.333,2.984,2.41,2.695,4.177c-0.229,1.4-1.291,2.179-2.592,2.462
				c-2.346,0.512-5.594-0.887-6.543-3.176c-1.402-3.39,1.303-7.268,4.76-7.656c3.285-0.37,5.357,2.849,6.662,5.389
				c1.307,2.551,2.289,5.258,3.631,7.795c1.377,2.604,3.311,5.043,6.223,5.897c2.998,0.88,5.873-0.505,7.801-2.801
				c1.854-2.206,2.828-5.366,2.145-8.213C84.634-13.966,82.345-16.114,79.829-17.015z"/>
		</g>
		<g>
			<path fill="#F15A29" d="M49.781-27.512c-0.207,4.476-5.193,6.675-9.127,6.646c-3.68-0.025-6.029-4.27-8.318-6.6
				c-2.605-2.657-5.818-4.06-9.479-2.935c-3.658,1.124-5.371,4.751-5.545,8.358c-0.043,0.939,1.404,0.93,1.447-0.003
				c0.213-4.491,3.58-8.29,8.338-7.146c3.822,0.918,6.07,5.168,8.768,7.686c4.965,4.631,15.041,0.933,15.363-6.01
				C51.27-28.455,49.826-28.444,49.781-27.512z"/>
			<path fill="#E8BC07" d="M48.115-27.571c-1.995-1.853-3.098-5.06-6.425-4.482c-2.835,0.492-4.344,3.488-3.795,6.211
				c0.591,2.934,4.68,3.095,6.533,1.227c2.153-2.17-0.208-5.938-3.025-4.279c-1.11,0.654-0.104,2.383,1.01,1.727
				c1.006,0.041,1.167,0.45,0.483,1.229c-0.258,0.179-0.535,0.322-0.831,0.431c-0.873,0.338-2.153,0.159-2.236-1.018
				c-0.093-1.311,0.282-2.64,1.451-3.346c2.401-1.449,4.064,2.455,5.42,3.715C47.645-25.281,49.063-26.692,48.115-27.571z"/>
			<path fill="#F15A29" d="M44.463-33.55c-1.516-0.607-3.256-0.11-4.588,0.693c-2.689,1.624-4.758,5.392-3.104,8.426
				c2.373,4.356,8.498,2.632,9.713-1.636c1.205-4.236-6.127-7.165-6.922-2.516c-0.416,2.419,1.695,4.169,3.771,2.598
				c0.732-0.556-0.004-1.811-0.75-1.247c-1.109,0.838-1.818,0.141-1.592-1.158c0.354-2.068,3.127-0.893,3.889,0.24
				c1.123,1.669-0.779,3.771-2.127,4.509c-1.578,0.866-3.664,0.051-4.645-1.373c-1.488-2.16,0.418-5.084,2.176-6.369
				c2.863-2.096,5.43-0.319,6.537,2.684c0.322,0.876,1.715,0.492,1.391-0.389C47.5-31.018,46.428-32.763,44.463-33.55z"/>
			<path fill="#E8BC07" d="M24.117-15.25c-3.606-0.964-4.625-5.49-2.975-8.458c1.592-2.865,7.114-4.975,9.153-1.401
				c0.639,1.12,2.367,0.112,1.727-1.01c-1.584-2.777-5.928-3.653-8.682-2.133c-3.508,1.936-5.905,5.504-4.729,9.571
				c1.178,4.072,4.226,5.938,8.381,5.567c3.988-0.355,5.108-5.318,4.548-8.516c-0.483-2.757-4.96-5.131-7.469-3.764
				c-2.658,1.447-4.371,5.63-1.645,8.041c2.037,1.801,6.361,0.861,6.455-2.295c0.095-3.203-4.192-4.146-4.77-0.815
				c-0.219,1.261,1.708,1.8,1.929,0.531c-0.529,1.755-1.33,2.037-2.402,0.844c-0.499-0.807-0.635-1.682-0.41-2.624
				c0.626-3.047,4.154-1.947,5.667-0.597c1.153,1.029,0.911,3.146,0.602,4.491C28.937-15.386,26.23-14.685,24.117-15.25z"/>
			<path fill="#F15A29" d="M27.594-27.256c-2.672-0.958-5.215,0.313-6.609,2.643c-1.189,1.991-1.043,4.447-0.131,6.512
				c2.123,4.793,8.932,3.579,9.416-1.578c0.24-2.594-2.098-4.384-4.508-4.083c-2.355,0.294-3.938,2.989-2.412,5.065
				c1.391,1.889,3.768,0.953,3.797-1.262c0.01-0.94-1.438-0.932-1.449,0.004c-0.012,1.009-0.736,1.018-1.266,0.297
				c-0.535-0.726-0.119-1.842,0.527-2.311c1.475-1.071,3.609-0.042,3.852,1.696c0.422,3.037-3.375,4.944-5.594,3.008
				c-2.008-1.751-2.029-4.863-0.754-6.992c2.041-3.41,6.346-1.487,8.188,1.028c2.193,2.995,0.992,6.972-1.311,9.491
				c-2.689,2.942-6.641,2.406-9.201-0.376c-4.004-4.353-4.359-11.109-8.762-15.178c-4.373-4.041-10.742-0.466-11.342,4.957
				c-0.551,4.966,5.459,8.411,9.73,6.668c5.336-2.18,1.756-11.002-3.619-8.938c-1.846,0.708-2.922,2.903-1.957,4.739
				c0.977,1.858,2.988,2.047,4.467,0.686c0.686-0.633-0.357-1.644-1.041-1.014c-0.9,0.831-1.896,0.478-2.268-0.664
				c-0.566-1.723,1.494-2.79,2.908-2.538c1.869,0.333,2.984,2.41,2.695,4.177c-0.229,1.4-1.291,2.179-2.592,2.462
				c-2.346,0.512-5.594-0.887-6.543-3.176c-1.402-3.39,1.303-7.268,4.76-7.656c3.285-0.37,5.357,2.849,6.662,5.389
				c1.307,2.551,2.289,5.258,3.631,7.795c1.377,2.604,3.311,5.043,6.223,5.897c2.998,0.88,5.873-0.505,7.801-2.801
				c1.854-2.206,2.828-5.366,2.145-8.213C32.398-24.208,30.109-26.355,27.594-27.256z"/>
		</g>
		<g>
			<path fill="#E8BC07" d="M116.461-46.971c-1.146-1.356-2.13-2.823-4.082-2.918c-2.116-0.103-4.082,0.646-5.346,2.399
				c-1.231,1.708-1.723,3.48-0.545,5.336c0.875,1.38,2.93,3.045,4.625,3.118c1.718,0.073,3.514-0.496,4.276-2.172
				c0.621-1.367-0.143-3.481-1.431-4.23c-1.17-0.68-3.476-0.849-4.063,0.708c-0.44,1.167,0.099,2.879,1.624,2.306
				c0.681-0.256,0.793-0.986,0.551-1.489c0.079-0.004,0.156-0.004,0.238-0.022c0.509,0.075,0.864,0.339,1.063,0.792
				c0.651,1.044-0.174,1.781-1.135,2.067c-1.63,0.485-3.482-1.237-4.283-2.5c-1.184-1.865,1.775-3.955,3.187-4.279
				c1.969-0.452,2.824,1.016,3.907,2.297C115.881-44.57,117.288-45.992,116.461-46.971z"/>
			<path fill="#F15A29" d="M117.395-39.612c-0.971,1.72-2.299,3.239-4.357,3.463c-1.777,0.194-3.518-0.688-4.975-1.615
				c-3.209-2.044-5.205-5.179-7.559-8.069c-2.152-2.642-5.014-3.656-8.305-2.653c-3.564,1.087-5.035,4.359-5.629,7.788
				c-0.16,0.92,1.238,1.295,1.4,0.371c0.309-1.787,0.754-3.58,1.926-5.006c1.318-1.603,3.525-2.209,5.523-2.087
				c3.334,0.202,5.23,4.328,7.119,6.582c2.137,2.55,4.898,4.937,8.125,5.89c3.488,1.028,6.322-0.985,7.99-3.946
				C119.114-39.712,117.854-40.427,117.395-39.612z"/>
			<path fill="#F15A29" d="M154.252-47.995c-0.207,4.476-5.193,6.675-9.127,6.646c-3.68-0.025-6.029-4.27-8.318-6.6
				c-2.605-2.657-5.818-4.06-9.479-2.935c-3.658,1.124-5.371,4.751-5.545,8.358c-0.043,0.939,1.404,0.93,1.447-0.003
				c0.213-4.491,3.58-8.29,8.338-7.146c3.822,0.918,6.07,5.168,8.768,7.686c4.965,4.631,15.041,0.933,15.363-6.01
				C155.741-48.938,154.297-48.927,154.252-47.995z"/>
			<path fill="#E8BC07" d="M128.588-35.733c-3.606-0.964-4.625-5.49-2.975-8.458c1.592-2.865,7.114-4.975,9.153-1.401
				c0.639,1.12,2.367,0.112,1.727-1.01c-1.584-2.777-5.928-3.653-8.682-2.133c-3.508,1.936-5.905,5.504-4.729,9.571
				c1.178,4.072,4.226,5.938,8.381,5.567c3.988-0.355,5.108-5.318,4.548-8.516c-0.483-2.757-4.96-5.131-7.469-3.764
				c-2.658,1.447-4.371,5.63-1.645,8.041c2.037,1.801,6.361,0.861,6.455-2.295c0.095-3.203-4.192-4.146-4.77-0.815
				c-0.219,1.261,1.708,1.8,1.929,0.531c-0.529,1.755-1.33,2.037-2.402,0.844c-0.499-0.807-0.635-1.682-0.41-2.624
				c0.626-3.047,4.154-1.947,5.667-0.597c1.153,1.029,0.911,3.146,0.602,4.491C133.408-35.869,130.702-35.167,128.588-35.733z"/>
			<path fill="#F15A29" d="M132.065-47.739c-2.672-0.958-5.215,0.313-6.609,2.643c-1.189,1.991-1.043,4.447-0.131,6.512
				c2.123,4.793,8.932,3.579,9.416-1.578c0.24-2.594-2.098-4.384-4.508-4.083c-2.355,0.294-3.938,2.989-2.412,5.065
				c1.391,1.889,3.768,0.953,3.797-1.262c0.01-0.94-1.438-0.932-1.449,0.004c-0.012,1.009-0.736,1.018-1.266,0.297
				c-0.535-0.726-0.119-1.842,0.527-2.311c1.475-1.071,3.609-0.042,3.852,1.696c0.422,3.037-3.375,4.944-5.594,3.008
				c-2.008-1.751-2.029-4.863-0.754-6.992c2.041-3.41,6.346-1.487,8.188,1.028c2.193,2.995,0.992,6.972-1.311,9.491
				c-2.689,2.942-6.641,2.406-9.201-0.376c-4.004-4.353-4.359-11.109-8.762-15.178c-4.373-4.041-10.742-0.466-11.342,4.957
				c-0.551,4.966,5.459,8.411,9.73,6.668c5.336-2.18,1.756-11.002-3.619-8.938c-1.846,0.708-2.922,2.903-1.957,4.739
				c0.977,1.858,2.988,2.047,4.467,0.686c0.686-0.633-0.357-1.644-1.041-1.014c-0.9,0.831-1.896,0.478-2.268-0.664
				c-0.566-1.723,1.494-2.79,2.908-2.538c1.869,0.333,2.984,2.41,2.695,4.177c-0.229,1.4-1.291,2.179-2.592,2.462
				c-2.346,0.512-5.594-0.887-6.543-3.176c-1.402-3.39,1.303-7.268,4.76-7.656c3.285-0.37,5.357,2.849,6.662,5.389
				c1.307,2.551,2.289,5.258,3.631,7.795c1.377,2.604,3.311,5.043,6.223,5.897c2.998,0.88,5.873-0.505,7.801-2.801
				c1.854-2.206,2.828-5.366,2.145-8.213C136.87-44.69,134.581-46.838,132.065-47.739z"/>
		</g>
		<g>
			<path fill="#E8BC07" d="M64.226-36.729c-1.146-1.356-2.13-2.823-4.082-2.918c-2.116-0.103-4.082,0.646-5.346,2.399
				c-1.231,1.708-1.723,3.48-0.545,5.336c0.875,1.38,2.93,3.045,4.625,3.118c1.718,0.073,3.514-0.496,4.276-2.172
				c0.621-1.367-0.143-3.481-1.431-4.23c-1.17-0.68-3.476-0.849-4.063,0.708c-0.44,1.167,0.099,2.879,1.624,2.306
				c0.681-0.256,0.793-0.986,0.551-1.489c0.079-0.004,0.156-0.004,0.238-0.022c0.509,0.075,0.864,0.339,1.063,0.792
				c0.651,1.044-0.174,1.781-1.135,2.067c-1.63,0.485-3.482-1.237-4.283-2.5c-1.184-1.865,1.775-3.955,3.187-4.279
				c1.969-0.452,2.824,1.016,3.907,2.297C63.645-34.329,65.052-35.751,64.226-36.729z"/>
			<path fill="#F15A29" d="M65.159-29.371c-0.971,1.72-2.299,3.239-4.357,3.463c-1.777,0.194-3.518-0.688-4.975-1.615
				c-3.209-2.044-5.205-5.179-7.559-8.069c-2.152-2.642-5.014-3.656-8.305-2.653c-3.564,1.087-5.035,4.359-5.629,7.788
				c-0.16,0.92,1.238,1.295,1.4,0.371c0.309-1.787,0.754-3.58,1.926-5.006c1.318-1.603,3.525-2.209,5.523-2.087
				c3.334,0.202,5.23,4.328,7.119,6.582c2.137,2.55,4.898,4.937,8.125,5.89c3.488,1.028,6.322-0.985,7.99-3.946
				C66.878-29.471,65.618-30.186,65.159-29.371z"/>
			<path fill="#F15A29" d="M102.017-37.754c-0.207,4.476-5.193,6.675-9.127,6.646c-3.68-0.025-6.029-4.27-8.318-6.6
				c-2.605-2.657-5.818-4.06-9.479-2.935c-3.658,1.124-5.371,4.751-5.545,8.358c-0.043,0.939,1.404,0.93,1.447-0.003
				c0.213-4.491,3.58-8.29,8.338-7.146c3.822,0.918,6.07,5.168,8.768,7.686c4.965,4.631,15.041,0.933,15.363-6.01
				C103.505-38.696,102.062-38.686,102.017-37.754z"/>
			<path fill="#E8BC07" d="M100.351-37.813c-1.995-1.853-3.098-5.06-6.425-4.482c-2.835,0.492-4.344,3.488-3.795,6.211
				c0.591,2.934,4.68,3.095,6.533,1.227c2.153-2.17-0.208-5.938-3.025-4.279c-1.11,0.654-0.104,2.383,1.01,1.727
				c1.006,0.041,1.167,0.45,0.483,1.229c-0.258,0.179-0.535,0.322-0.831,0.431c-0.873,0.338-2.153,0.159-2.236-1.018
				c-0.093-1.311,0.282-2.64,1.451-3.346c2.401-1.449,4.064,2.455,5.42,3.715C99.88-35.523,101.298-36.934,100.351-37.813z"/>
			<path fill="#F15A29" d="M96.698-43.792c-1.516-0.607-3.256-0.11-4.588,0.693c-2.689,1.624-4.758,5.392-3.104,8.426
				c2.373,4.356,8.498,2.632,9.713-1.636c1.205-4.236-6.127-7.165-6.922-2.516c-0.416,2.419,1.695,4.169,3.771,2.598
				c0.732-0.556-0.004-1.811-0.75-1.247c-1.109,0.838-1.818,0.141-1.592-1.158c0.354-2.068,3.127-0.893,3.889,0.24
				c1.123,1.669-0.779,3.771-2.127,4.509c-1.578,0.866-3.664,0.051-4.645-1.373c-1.488-2.16,0.418-5.084,2.176-6.369
				c2.863-2.096,5.43-0.319,6.537,2.684c0.322,0.876,1.715,0.492,1.391-0.389C99.735-41.26,98.663-43.005,96.698-43.792z"/>
			<path fill="#E8BC07" d="M76.352-25.492c-3.606-0.964-4.625-5.49-2.975-8.458c1.592-2.865,7.114-4.975,9.153-1.401
				c0.639,1.12,2.367,0.112,1.727-1.01c-1.584-2.777-5.928-3.653-8.682-2.133c-3.508,1.936-5.905,5.504-4.729,9.571
				c1.178,4.072,4.226,5.938,8.381,5.567c3.988-0.355,5.108-5.318,4.548-8.516c-0.483-2.757-4.96-5.131-7.469-3.764
				c-2.658,1.447-4.371,5.63-1.645,8.041c2.037,1.801,6.361,0.861,6.455-2.295c0.095-3.203-4.192-4.146-4.77-0.815
				c-0.219,1.261,1.708,1.8,1.929,0.531c-0.529,1.755-1.33,2.037-2.402,0.844c-0.499-0.807-0.635-1.682-0.41-2.624
				C76.089-35,79.617-33.9,81.13-32.55c1.153,1.029,0.911,3.146,0.602,4.491C81.172-25.628,78.466-24.926,76.352-25.492z"/>
			<path fill="#F15A29" d="M79.829-37.498c-2.672-0.958-5.215,0.313-6.609,2.643c-1.189,1.991-1.043,4.447-0.131,6.512
				c2.123,4.793,8.932,3.579,9.416-1.578c0.24-2.594-2.098-4.384-4.508-4.083c-2.355,0.294-3.938,2.989-2.412,5.065
				c1.391,1.889,3.768,0.953,3.797-1.262c0.01-0.94-1.438-0.932-1.449,0.004c-0.012,1.009-0.736,1.018-1.266,0.297
				c-0.535-0.726-0.119-1.842,0.527-2.311c1.475-1.071,3.609-0.042,3.852,1.696c0.422,3.037-3.375,4.944-5.594,3.008
				c-2.008-1.751-2.029-4.863-0.754-6.992c2.041-3.41,6.346-1.487,8.188,1.028c2.193,2.995,0.992,6.972-1.311,9.491
				c-2.689,2.942-6.641,2.406-9.201-0.376c-4.004-4.353-4.359-11.109-8.762-15.178c-4.373-4.041-10.742-0.466-11.342,4.957
				c-0.551,4.966,5.459,8.411,9.73,6.668c5.336-2.18,1.756-11.002-3.619-8.938c-1.846,0.708-2.922,2.903-1.957,4.739
				c0.977,1.858,2.988,2.047,4.467,0.686c0.686-0.633-0.357-1.644-1.041-1.014c-0.9,0.831-1.896,0.478-2.268-0.664
				c-0.566-1.723,1.494-2.79,2.908-2.538c1.869,0.333,2.984,2.41,2.695,4.177c-0.229,1.4-1.291,2.179-2.592,2.462
				c-2.346,0.512-5.594-0.887-6.543-3.176c-1.402-3.39,1.303-7.268,4.76-7.656c3.285-0.37,5.357,2.849,6.662,5.389
				c1.307,2.551,2.289,5.258,3.631,7.795c1.377,2.604,3.311,5.043,6.223,5.897c2.998,0.88,5.873-0.505,7.801-2.801
				c1.854-2.206,2.828-5.366,2.145-8.213C84.634-34.449,82.345-36.597,79.829-37.498z"/>
		</g>
		<g>
			<path fill="#F15A29" d="M49.781-47.995c-0.207,4.476-5.193,6.675-9.127,6.646c-3.68-0.025-6.029-4.27-8.318-6.6
				c-2.605-2.657-5.818-4.06-9.479-2.935c-3.658,1.124-5.371,4.751-5.545,8.358c-0.043,0.939,1.404,0.93,1.447-0.003
				c0.213-4.491,3.58-8.29,8.338-7.146c3.822,0.918,6.07,5.168,8.768,7.686c4.965,4.631,15.041,0.933,15.363-6.01
				C51.27-48.938,49.826-48.927,49.781-47.995z"/>
			<path fill="#E8BC07" d="M48.115-48.054c-1.995-1.853-3.098-5.06-6.425-4.482c-2.835,0.492-4.344,3.488-3.795,6.211
				c0.591,2.934,4.68,3.095,6.533,1.227c2.153-2.17-0.208-5.938-3.025-4.279c-1.11,0.654-0.104,2.383,1.01,1.727
				c1.006,0.041,1.167,0.45,0.483,1.229c-0.258,0.179-0.535,0.322-0.831,0.431c-0.873,0.338-2.153,0.159-2.236-1.018
				c-0.093-1.311,0.282-2.64,1.451-3.346c2.401-1.449,4.064,2.455,5.42,3.715C47.645-45.764,49.063-47.175,48.115-48.054z"/>
			<path fill="#F15A29" d="M44.463-54.033c-1.516-0.607-3.256-0.11-4.588,0.693c-2.689,1.624-4.758,5.392-3.104,8.426
				c2.373,4.356,8.498,2.632,9.713-1.636c1.205-4.236-6.127-7.165-6.922-2.516c-0.416,2.419,1.695,4.169,3.771,2.598
				c0.732-0.556-0.004-1.811-0.75-1.247c-1.109,0.838-1.818,0.141-1.592-1.158c0.354-2.068,3.127-0.893,3.889,0.24
				c1.123,1.669-0.779,3.771-2.127,4.509c-1.578,0.866-3.664,0.051-4.645-1.373c-1.488-2.16,0.418-5.084,2.176-6.369
				c2.863-2.096,5.43-0.319,6.537,2.684c0.322,0.876,1.715,0.492,1.391-0.389C47.5-51.501,46.428-53.246,44.463-54.033z"/>
			<path fill="#E8BC07" d="M24.117-35.733c-3.606-0.964-4.625-5.49-2.975-8.458c1.592-2.865,7.114-4.975,9.153-1.401
				c0.639,1.12,2.367,0.112,1.727-1.01c-1.584-2.777-5.928-3.653-8.682-2.133c-3.508,1.936-5.905,5.504-4.729,9.571
				c1.178,4.072,4.226,5.938,8.381,5.567c3.988-0.355,5.108-5.318,4.548-8.516c-0.483-2.757-4.96-5.131-7.469-3.764
				c-2.658,1.447-4.371,5.63-1.645,8.041c2.037,1.801,6.361,0.861,6.455-2.295c0.095-3.203-4.192-4.146-4.77-0.815
				c-0.219,1.261,1.708,1.8,1.929,0.531c-0.529,1.755-1.33,2.037-2.402,0.844c-0.499-0.807-0.635-1.682-0.41-2.624
				c0.626-3.047,4.154-1.947,5.667-0.597c1.153,1.029,0.911,3.146,0.602,4.491C28.937-35.869,26.23-35.167,24.117-35.733z"/>
			<path fill="#F15A29" d="M27.594-47.739c-2.672-0.958-5.215,0.313-6.609,2.643c-1.189,1.991-1.043,4.447-0.131,6.512
				c2.123,4.793,8.932,3.579,9.416-1.578c0.24-2.594-2.098-4.384-4.508-4.083c-2.355,0.294-3.938,2.989-2.412,5.065
				c1.391,1.889,3.768,0.953,3.797-1.262c0.01-0.94-1.438-0.932-1.449,0.004c-0.012,1.009-0.736,1.018-1.266,0.297
				c-0.535-0.726-0.119-1.842,0.527-2.311c1.475-1.071,3.609-0.042,3.852,1.696c0.422,3.037-3.375,4.944-5.594,3.008
				c-2.008-1.751-2.029-4.863-0.754-6.992c2.041-3.41,6.346-1.487,8.188,1.028c2.193,2.995,0.992,6.972-1.311,9.491
				c-2.689,2.942-6.641,2.406-9.201-0.376c-4.004-4.353-4.359-11.109-8.762-15.178C7.004-53.815,0.635-50.24,0.035-44.817
				c-0.551,4.966,5.459,8.411,9.73,6.668c5.336-2.18,1.756-11.002-3.619-8.938c-1.846,0.708-2.922,2.903-1.957,4.739
				c0.977,1.858,2.988,2.047,4.467,0.686c0.686-0.633-0.357-1.644-1.041-1.014c-0.9,0.831-1.896,0.478-2.268-0.664
				c-0.566-1.723,1.494-2.79,2.908-2.538c1.869,0.333,2.984,2.41,2.695,4.177c-0.229,1.4-1.291,2.179-2.592,2.462
				c-2.346,0.512-5.594-0.887-6.543-3.176c-1.402-3.39,1.303-7.268,4.76-7.656c3.285-0.37,5.357,2.849,6.662,5.389
				c1.307,2.551,2.289,5.258,3.631,7.795c1.377,2.604,3.311,5.043,6.223,5.897c2.998,0.88,5.873-0.505,7.801-2.801
				c1.854-2.206,2.828-5.366,2.145-8.213C32.398-44.69,30.109-46.838,27.594-47.739z"/>
		</g>
		<g>
			<path fill="#E8BC07" d="M116.461-67.454c-1.146-1.356-2.13-2.823-4.082-2.918c-2.116-0.103-4.082,0.646-5.346,2.399
				c-1.231,1.708-1.723,3.48-0.545,5.336c0.875,1.38,2.93,3.045,4.625,3.118c1.718,0.073,3.514-0.496,4.276-2.172
				c0.621-1.367-0.143-3.481-1.431-4.23c-1.17-0.68-3.476-0.849-4.063,0.708c-0.44,1.167,0.099,2.879,1.624,2.306
				c0.681-0.256,0.793-0.986,0.551-1.489c0.079-0.004,0.156-0.004,0.238-0.022c0.509,0.075,0.864,0.339,1.063,0.792
				c0.651,1.044-0.174,1.781-1.135,2.067c-1.63,0.485-3.482-1.237-4.283-2.5c-1.184-1.865,1.775-3.955,3.187-4.279
				c1.969-0.452,2.824,1.016,3.907,2.297C115.881-65.054,117.288-66.476,116.461-67.454z"/>
			<path fill="#F15A29" d="M117.395-60.096c-0.971,1.72-2.299,3.239-4.357,3.463c-1.777,0.194-3.518-0.688-4.975-1.615
				c-3.209-2.044-5.205-5.179-7.559-8.069c-2.152-2.642-5.014-3.656-8.305-2.653c-3.564,1.087-5.035,4.359-5.629,7.788
				c-0.16,0.92,1.238,1.295,1.4,0.371c0.309-1.787,0.754-3.58,1.926-5.006c1.318-1.603,3.525-2.209,5.523-2.087
				c3.334,0.202,5.23,4.328,7.119,6.582c2.137,2.55,4.898,4.937,8.125,5.89c3.488,1.028,6.322-0.985,7.99-3.946
				C119.114-60.195,117.854-60.91,117.395-60.096z"/>
			<path fill="#F15A29" d="M154.252-68.479c-0.207,4.476-5.193,6.675-9.127,6.646c-3.68-0.025-6.029-4.27-8.318-6.6
				c-2.605-2.657-5.818-4.06-9.479-2.935c-3.658,1.124-5.371,4.751-5.545,8.358c-0.043,0.939,1.404,0.93,1.447-0.003
				c0.213-4.491,3.58-8.29,8.338-7.146c3.822,0.918,6.07,5.168,8.768,7.686c4.965,4.631,15.041,0.933,15.363-6.01
				C155.741-69.421,154.297-69.41,154.252-68.479z"/>
			<path fill="#E8BC07" d="M128.588-56.216c-3.606-0.964-4.625-5.49-2.975-8.458c1.592-2.865,7.114-4.975,9.153-1.401
				c0.639,1.12,2.367,0.112,1.727-1.01c-1.584-2.777-5.928-3.653-8.682-2.133c-3.508,1.936-5.905,5.504-4.729,9.571
				c1.178,4.072,4.226,5.938,8.381,5.567c3.988-0.355,5.108-5.318,4.548-8.516c-0.483-2.757-4.96-5.131-7.469-3.764
				c-2.658,1.447-4.371,5.63-1.645,8.041c2.037,1.801,6.361,0.861,6.455-2.295c0.095-3.203-4.192-4.146-4.77-0.815
				c-0.219,1.261,1.708,1.8,1.929,0.531c-0.529,1.755-1.33,2.037-2.402,0.844c-0.499-0.807-0.635-1.682-0.41-2.624
				c0.626-3.047,4.154-1.947,5.667-0.597c1.153,1.029,0.911,3.146,0.602,4.491C133.408-56.353,130.702-55.651,128.588-56.216z"/>
			<path fill="#F15A29" d="M132.065-68.223c-2.672-0.958-5.215,0.313-6.609,2.643c-1.189,1.991-1.043,4.447-0.131,6.512
				c2.123,4.793,8.932,3.579,9.416-1.578c0.24-2.594-2.098-4.384-4.508-4.083c-2.355,0.294-3.938,2.989-2.412,5.065
				c1.391,1.889,3.768,0.953,3.797-1.262c0.01-0.94-1.438-0.932-1.449,0.004c-0.012,1.009-0.736,1.018-1.266,0.297
				c-0.535-0.726-0.119-1.842,0.527-2.311c1.475-1.071,3.609-0.042,3.852,1.696c0.422,3.037-3.375,4.944-5.594,3.008
				c-2.008-1.751-2.029-4.863-0.754-6.992c2.041-3.41,6.346-1.487,8.188,1.028c2.193,2.995,0.992,6.972-1.311,9.491
				c-2.689,2.942-6.641,2.406-9.201-0.376c-4.004-4.353-4.359-11.109-8.762-15.178c-4.373-4.041-10.742-0.466-11.342,4.957
				c-0.551,4.966,5.459,8.411,9.73,6.668c5.336-2.18,1.756-11.002-3.619-8.938c-1.846,0.708-2.922,2.903-1.957,4.739
				c0.977,1.858,2.988,2.047,4.467,0.686c0.686-0.633-0.357-1.644-1.041-1.014c-0.9,0.831-1.896,0.478-2.268-0.664
				c-0.566-1.723,1.494-2.79,2.908-2.538c1.869,0.333,2.984,2.41,2.695,4.177c-0.229,1.4-1.291,2.179-2.592,2.462
				c-2.346,0.512-5.594-0.887-6.543-3.176c-1.402-3.39,1.303-7.268,4.76-7.656c3.285-0.37,5.357,2.849,6.662,5.389
				c1.307,2.551,2.289,5.258,3.631,7.795c1.377,2.604,3.311,5.043,6.223,5.897c2.998,0.88,5.873-0.505,7.801-2.801
				c1.854-2.206,2.828-5.366,2.145-8.213C136.87-65.174,134.581-67.321,132.065-68.223z"/>
		</g>
		<g>
			<path fill="#E8BC07" d="M64.226-57.212c-1.146-1.356-2.13-2.823-4.082-2.918c-2.116-0.103-4.082,0.646-5.346,2.399
				c-1.231,1.708-1.723,3.48-0.545,5.336c0.875,1.38,2.93,3.045,4.625,3.118c1.718,0.073,3.514-0.496,4.276-2.172
				c0.621-1.367-0.143-3.481-1.431-4.23c-1.17-0.68-3.476-0.849-4.063,0.708c-0.44,1.167,0.099,2.879,1.624,2.306
				c0.681-0.256,0.793-0.986,0.551-1.489c0.079-0.004,0.156-0.004,0.238-0.022c0.509,0.075,0.864,0.339,1.063,0.792
				c0.651,1.044-0.174,1.781-1.135,2.067c-1.63,0.485-3.482-1.237-4.283-2.5c-1.184-1.865,1.775-3.955,3.187-4.279
				c1.969-0.452,2.824,1.016,3.907,2.297C63.645-54.812,65.052-56.234,64.226-57.212z"/>
			<path fill="#F15A29" d="M65.159-49.854c-0.971,1.72-2.299,3.239-4.357,3.463c-1.777,0.194-3.518-0.688-4.975-1.615
				c-3.209-2.044-5.205-5.179-7.559-8.069c-2.152-2.642-5.014-3.656-8.305-2.653c-3.564,1.087-5.035,4.359-5.629,7.788
				c-0.16,0.92,1.238,1.295,1.4,0.371c0.309-1.787,0.754-3.58,1.926-5.006c1.318-1.603,3.525-2.209,5.523-2.087
				c3.334,0.202,5.23,4.328,7.119,6.582c2.137,2.55,4.898,4.937,8.125,5.89c3.488,1.028,6.322-0.985,7.99-3.946
				C66.878-49.954,65.618-50.668,65.159-49.854z"/>
			<path fill="#F15A29" d="M102.017-58.237c-0.207,4.476-5.193,6.675-9.127,6.646c-3.68-0.025-6.029-4.27-8.318-6.6
				c-2.605-2.657-5.818-4.06-9.479-2.935c-3.658,1.124-5.371,4.751-5.545,8.358c-0.043,0.939,1.404,0.93,1.447-0.003
				c0.213-4.491,3.58-8.29,8.338-7.146c3.822,0.918,6.07,5.168,8.768,7.686c4.965,4.631,15.041,0.933,15.363-6.01
				C103.505-59.179,102.062-59.168,102.017-58.237z"/>
			<path fill="#E8BC07" d="M100.351-58.296c-1.995-1.853-3.098-5.06-6.425-4.482c-2.835,0.492-4.344,3.488-3.795,6.211
				c0.591,2.934,4.68,3.095,6.533,1.227c2.153-2.17-0.208-5.938-3.025-4.279c-1.11,0.654-0.104,2.383,1.01,1.727
				c1.006,0.041,1.167,0.45,0.483,1.229c-0.258,0.179-0.535,0.322-0.831,0.431c-0.873,0.338-2.153,0.159-2.236-1.018
				c-0.093-1.311,0.282-2.64,1.451-3.346c2.401-1.449,4.064,2.455,5.42,3.715C99.88-56.006,101.298-57.417,100.351-58.296z"/>
			<path fill="#F15A29" d="M96.698-64.275c-1.516-0.607-3.256-0.11-4.588,0.693c-2.689,1.624-4.758,5.392-3.104,8.426
				c2.373,4.356,8.498,2.632,9.713-1.636c1.205-4.236-6.127-7.165-6.922-2.516c-0.416,2.419,1.695,4.169,3.771,2.598
				c0.732-0.556-0.004-1.811-0.75-1.247c-1.109,0.838-1.818,0.141-1.592-1.158c0.354-2.068,3.127-0.893,3.889,0.24
				c1.123,1.669-0.779,3.771-2.127,4.509c-1.578,0.866-3.664,0.051-4.645-1.373c-1.488-2.16,0.418-5.084,2.176-6.369
				c2.863-2.096,5.43-0.319,6.537,2.684c0.322,0.876,1.715,0.492,1.391-0.389C99.735-61.743,98.663-63.488,96.698-64.275z"/>
			<path fill="#E8BC07" d="M76.352-45.975c-3.606-0.964-4.625-5.49-2.975-8.458c1.592-2.865,7.114-4.975,9.153-1.401
				c0.639,1.12,2.367,0.112,1.727-1.01c-1.584-2.777-5.928-3.653-8.682-2.133c-3.508,1.936-5.905,5.504-4.729,9.571
				c1.178,4.072,4.226,5.938,8.381,5.567c3.988-0.355,5.108-5.318,4.548-8.516c-0.483-2.757-4.96-5.131-7.469-3.764
				c-2.658,1.447-4.371,5.63-1.645,8.041c2.037,1.801,6.361,0.861,6.455-2.295c0.095-3.203-4.192-4.146-4.77-0.815
				c-0.219,1.261,1.708,1.8,1.929,0.531c-0.529,1.755-1.33,2.037-2.402,0.844c-0.499-0.807-0.635-1.682-0.41-2.624
				c0.626-3.047,4.154-1.947,5.667-0.597c1.153,1.029,0.911,3.146,0.602,4.491C81.172-46.111,78.466-45.409,76.352-45.975z"/>
			<path fill="#F15A29" d="M79.829-57.981c-2.672-0.958-5.215,0.313-6.609,2.643c-1.189,1.991-1.043,4.447-0.131,6.512
				c2.123,4.793,8.932,3.579,9.416-1.578c0.24-2.594-2.098-4.384-4.508-4.083c-2.355,0.294-3.938,2.989-2.412,5.065
				c1.391,1.889,3.768,0.953,3.797-1.262c0.01-0.94-1.438-0.932-1.449,0.004c-0.012,1.009-0.736,1.018-1.266,0.297
				c-0.535-0.726-0.119-1.842,0.527-2.311c1.475-1.071,3.609-0.042,3.852,1.696c0.422,3.037-3.375,4.944-5.594,3.008
				c-2.008-1.751-2.029-4.863-0.754-6.992c2.041-3.41,6.346-1.487,8.188,1.028c2.193,2.995,0.992,6.972-1.311,9.491
				c-2.689,2.942-6.641,2.406-9.201-0.376c-4.004-4.353-4.359-11.109-8.762-15.178c-4.373-4.041-10.742-0.466-11.342,4.957
				c-0.551,4.966,5.459,8.411,9.73,6.668c5.336-2.18,1.756-11.002-3.619-8.938c-1.846,0.708-2.922,2.903-1.957,4.739
				c0.977,1.858,2.988,2.047,4.467,0.686c0.686-0.633-0.357-1.644-1.041-1.014c-0.9,0.831-1.896,0.478-2.268-0.664
				c-0.566-1.723,1.494-2.79,2.908-2.538c1.869,0.333,2.984,2.41,2.695,4.177c-0.229,1.4-1.291,2.179-2.592,2.462
				c-2.346,0.512-5.594-0.887-6.543-3.176c-1.402-3.39,1.303-7.268,4.76-7.656c3.285-0.37,5.357,2.849,6.662,5.389
				c1.307,2.551,2.289,5.258,3.631,7.795c1.377,2.604,3.311,5.043,6.223,5.897c2.998,0.88,5.873-0.505,7.801-2.801
				c1.854-2.206,2.828-5.366,2.145-8.213C84.634-54.932,82.345-57.08,79.829-57.981z"/>
		</g>
		<g>
			<path fill="#F15A29" d="M49.781-68.479c-0.207,4.476-5.193,6.675-9.127,6.646c-3.68-0.025-6.029-4.27-8.318-6.6
				c-2.605-2.657-5.818-4.06-9.479-2.935c-3.658,1.124-5.371,4.751-5.545,8.358c-0.043,0.939,1.404,0.93,1.447-0.003
				c0.213-4.491,3.58-8.29,8.338-7.146c3.822,0.918,6.07,5.168,8.768,7.686c4.965,4.631,15.041,0.933,15.363-6.01
				C51.27-69.421,49.826-69.41,49.781-68.479z"/>
			<path fill="#E8BC07" d="M48.115-68.538c-1.995-1.853-3.098-5.06-6.425-4.482c-2.835,0.492-4.344,3.488-3.795,6.211
				c0.591,2.934,4.68,3.095,6.533,1.227c2.153-2.17-0.208-5.938-3.025-4.279c-1.11,0.654-0.104,2.383,1.01,1.727
				c1.006,0.041,1.167,0.45,0.483,1.229c-0.258,0.179-0.535,0.322-0.831,0.431c-0.873,0.338-2.153,0.159-2.236-1.018
				c-0.093-1.311,0.282-2.64,1.451-3.346c2.401-1.449,4.064,2.455,5.42,3.715C47.645-66.248,49.063-67.658,48.115-68.538z"/>
			<path fill="#F15A29" d="M44.463-74.517c-1.516-0.607-3.256-0.11-4.588,0.693c-2.689,1.624-4.758,5.392-3.104,8.426
				c2.373,4.356,8.498,2.632,9.713-1.636c1.205-4.236-6.127-7.165-6.922-2.516c-0.416,2.419,1.695,4.169,3.771,2.598
				c0.732-0.556-0.004-1.811-0.75-1.247c-1.109,0.838-1.818,0.141-1.592-1.158c0.354-2.068,3.127-0.893,3.889,0.24
				c1.123,1.669-0.779,3.771-2.127,4.509c-1.578,0.866-3.664,0.051-4.645-1.373c-1.488-2.16,0.418-5.084,2.176-6.369
				c2.863-2.096,5.43-0.319,6.537,2.684c0.322,0.876,1.715,0.492,1.391-0.389C47.5-71.984,46.428-73.729,44.463-74.517z"/>
			<path fill="#E8BC07" d="M24.117-56.216c-3.606-0.964-4.625-5.49-2.975-8.458c1.592-2.865,7.114-4.975,9.153-1.401
				c0.639,1.12,2.367,0.112,1.727-1.01c-1.584-2.777-5.928-3.653-8.682-2.133c-3.508,1.936-5.905,5.504-4.729,9.571
				c1.178,4.072,4.226,5.938,8.381,5.567c3.988-0.355,5.108-5.318,4.548-8.516c-0.483-2.757-4.96-5.131-7.469-3.764
				c-2.658,1.447-4.371,5.63-1.645,8.041c2.037,1.801,6.361,0.861,6.455-2.295c0.095-3.203-4.192-4.146-4.77-0.815
				c-0.219,1.261,1.708,1.8,1.929,0.531c-0.529,1.755-1.33,2.037-2.402,0.844c-0.499-0.807-0.635-1.682-0.41-2.624
				c0.626-3.047,4.154-1.947,5.667-0.597c1.153,1.029,0.911,3.146,0.602,4.491C28.937-56.353,26.23-55.651,24.117-56.216z"/>
			<path fill="#F15A29" d="M27.594-68.223c-2.672-0.958-5.215,0.313-6.609,2.643c-1.189,1.991-1.043,4.447-0.131,6.512
				c2.123,4.793,8.932,3.579,9.416-1.578c0.24-2.594-2.098-4.384-4.508-4.083c-2.355,0.294-3.938,2.989-2.412,5.065
				c1.391,1.889,3.768,0.953,3.797-1.262c0.01-0.94-1.438-0.932-1.449,0.004c-0.012,1.009-0.736,1.018-1.266,0.297
				c-0.535-0.726-0.119-1.842,0.527-2.311c1.475-1.071,3.609-0.042,3.852,1.696c0.422,3.037-3.375,4.944-5.594,3.008
				c-2.008-1.751-2.029-4.863-0.754-6.992c2.041-3.41,6.346-1.487,8.188,1.028c2.193,2.995,0.992,6.972-1.311,9.491
				c-2.689,2.942-6.641,2.406-9.201-0.376c-4.004-4.353-4.359-11.109-8.762-15.178c-4.373-4.041-10.742-0.466-11.342,4.957
				c-0.551,4.966,5.459,8.411,9.73,6.668c5.336-2.18,1.756-11.002-3.619-8.938c-1.846,0.708-2.922,2.903-1.957,4.739
				c0.977,1.858,2.988,2.047,4.467,0.686c0.686-0.633-0.357-1.644-1.041-1.014c-0.9,0.831-1.896,0.478-2.268-0.664
				c-0.566-1.723,1.494-2.79,2.908-2.538c1.869,0.333,2.984,2.41,2.695,4.177c-0.229,1.4-1.291,2.179-2.592,2.462
				c-2.346,0.512-5.594-0.887-6.543-3.176c-1.402-3.39,1.303-7.268,4.76-7.656c3.285-0.37,5.357,2.849,6.662,5.389
				c1.307,2.551,2.289,5.258,3.631,7.795c1.377,2.604,3.311,5.043,6.223,5.897c2.998,0.88,5.873-0.505,7.801-2.801
				c1.854-2.206,2.828-5.366,2.145-8.213C32.398-65.174,30.109-67.321,27.594-68.223z"/>
		</g>
		<g>
			<path fill="#E8BC07" d="M116.461-87.937c-1.146-1.356-2.13-2.823-4.082-2.918c-2.116-0.103-4.082,0.646-5.346,2.399
				c-1.231,1.708-1.723,3.48-0.545,5.336c0.875,1.38,2.93,3.045,4.625,3.118c1.718,0.073,3.514-0.496,4.276-2.172
				c0.621-1.367-0.143-3.481-1.431-4.23c-1.17-0.68-3.476-0.849-4.063,0.708c-0.44,1.167,0.099,2.879,1.624,2.306
				c0.681-0.256,0.793-0.986,0.551-1.489c0.079-0.004,0.156-0.004,0.238-0.022c0.509,0.075,0.864,0.339,1.063,0.792
				c0.651,1.044-0.174,1.781-1.135,2.067c-1.63,0.485-3.482-1.237-4.283-2.5c-1.184-1.865,1.775-3.955,3.187-4.279
				c1.969-0.452,2.824,1.016,3.907,2.297C115.881-85.537,117.288-86.958,116.461-87.937z"/>
			<path fill="#F15A29" d="M117.395-80.579c-0.971,1.72-2.299,3.239-4.357,3.463c-1.777,0.194-3.518-0.688-4.975-1.615
				c-3.209-2.044-5.205-5.179-7.559-8.069c-2.152-2.642-5.014-3.656-8.305-2.653c-3.564,1.087-5.035,4.359-5.629,7.788
				c-0.16,0.92,1.238,1.295,1.4,0.371c0.309-1.787,0.754-3.58,1.926-5.006c1.318-1.603,3.525-2.209,5.523-2.087
				c3.334,0.202,5.23,4.328,7.119,6.582c2.137,2.55,4.898,4.937,8.125,5.89c3.488,1.028,6.322-0.985,7.99-3.946
				C119.114-80.678,117.854-81.393,117.395-80.579z"/>
			<path fill="#F15A29" d="M154.252-88.961c-0.207,4.476-5.193,6.675-9.127,6.646c-3.68-0.025-6.029-4.27-8.318-6.6
				c-2.605-2.657-5.818-4.06-9.479-2.935c-3.658,1.124-5.371,4.751-5.545,8.358c-0.043,0.939,1.404,0.93,1.447-0.003
				c0.213-4.491,3.58-8.29,8.338-7.146c3.822,0.918,6.07,5.168,8.768,7.686c4.965,4.631,15.041,0.933,15.363-6.01
				C155.741-89.904,154.297-89.893,154.252-88.961z"/>
			<path fill="#E8BC07" d="M128.588-76.699c-3.606-0.964-4.625-5.49-2.975-8.458c1.592-2.865,7.114-4.975,9.153-1.401
				c0.639,1.12,2.367,0.112,1.727-1.01c-1.584-2.777-5.928-3.653-8.682-2.133c-3.508,1.936-5.905,5.504-4.729,9.571
				c1.178,4.072,4.226,5.938,8.381,5.567c3.988-0.355,5.108-5.318,4.548-8.516c-0.483-2.757-4.96-5.131-7.469-3.764
				c-2.658,1.447-4.371,5.63-1.645,8.041c2.037,1.801,6.361,0.861,6.455-2.295c0.095-3.203-4.192-4.146-4.77-0.815
				c-0.219,1.261,1.708,1.8,1.929,0.531c-0.529,1.755-1.33,2.037-2.402,0.844c-0.499-0.807-0.635-1.682-0.41-2.624
				c0.626-3.047,4.154-1.947,5.667-0.597c1.153,1.029,0.911,3.146,0.602,4.491C133.408-76.835,130.702-76.134,128.588-76.699z"/>
			<path fill="#F15A29" d="M132.065-88.706c-2.672-0.958-5.215,0.313-6.609,2.643c-1.189,1.991-1.043,4.447-0.131,6.512
				c2.123,4.793,8.932,3.579,9.416-1.578c0.24-2.594-2.098-4.384-4.508-4.083c-2.355,0.294-3.938,2.989-2.412,5.065
				c1.391,1.889,3.768,0.953,3.797-1.262c0.01-0.94-1.438-0.932-1.449,0.004c-0.012,1.009-0.736,1.018-1.266,0.297
				c-0.535-0.726-0.119-1.842,0.527-2.311c1.475-1.071,3.609-0.042,3.852,1.696c0.422,3.037-3.375,4.944-5.594,3.008
				c-2.008-1.751-2.029-4.863-0.754-6.992c2.041-3.41,6.346-1.487,8.188,1.028c2.193,2.995,0.992,6.972-1.311,9.491
				c-2.689,2.942-6.641,2.406-9.201-0.376c-4.004-4.353-4.359-11.109-8.762-15.178c-4.373-4.041-10.742-0.466-11.342,4.957
				c-0.551,4.966,5.459,8.411,9.73,6.668c5.336-2.18,1.756-11.002-3.619-8.938c-1.846,0.708-2.922,2.903-1.957,4.739
				c0.977,1.858,2.988,2.047,4.467,0.686c0.686-0.633-0.357-1.644-1.041-1.014c-0.9,0.831-1.896,0.478-2.268-0.664
				c-0.566-1.723,1.494-2.79,2.908-2.538c1.869,0.333,2.984,2.41,2.695,4.177c-0.229,1.4-1.291,2.179-2.592,2.462
				c-2.346,0.512-5.594-0.887-6.543-3.176c-1.402-3.39,1.303-7.268,4.76-7.656c3.285-0.37,5.357,2.849,6.662,5.389
				c1.307,2.551,2.289,5.258,3.631,7.795c1.377,2.604,3.311,5.043,6.223,5.897c2.998,0.88,5.873-0.505,7.801-2.801
				c1.854-2.206,2.828-5.366,2.145-8.213C136.87-85.657,134.581-87.804,132.065-88.706z"/>
		</g>
		<g>
			<path fill="#E8BC07" d="M64.226-77.695c-1.146-1.356-2.13-2.823-4.082-2.918c-2.116-0.103-4.082,0.646-5.346,2.399
				c-1.231,1.708-1.723,3.48-0.545,5.336c0.875,1.38,2.93,3.045,4.625,3.118c1.718,0.073,3.514-0.496,4.276-2.172
				c0.621-1.367-0.143-3.481-1.431-4.23c-1.17-0.68-3.476-0.849-4.063,0.708c-0.44,1.167,0.099,2.879,1.624,2.306
				c0.681-0.256,0.793-0.986,0.551-1.489c0.079-0.004,0.156-0.004,0.238-0.022c0.509,0.075,0.864,0.339,1.063,0.792
				c0.651,1.044-0.174,1.781-1.135,2.067c-1.63,0.485-3.482-1.237-4.283-2.5c-1.184-1.865,1.775-3.955,3.187-4.279
				c1.969-0.452,2.824,1.016,3.907,2.297C63.645-75.295,65.052-76.717,64.226-77.695z"/>
			<path fill="#F15A29" d="M65.159-70.337c-0.971,1.72-2.299,3.239-4.357,3.463c-1.777,0.194-3.518-0.688-4.975-1.615
				c-3.209-2.044-5.205-5.179-7.559-8.069c-2.152-2.642-5.014-3.656-8.305-2.653c-3.564,1.087-5.035,4.359-5.629,7.788
				c-0.16,0.92,1.238,1.295,1.4,0.371c0.309-1.787,0.754-3.58,1.926-5.006c1.318-1.603,3.525-2.209,5.523-2.087
				c3.334,0.202,5.23,4.328,7.119,6.582c2.137,2.55,4.898,4.937,8.125,5.89c3.488,1.028,6.322-0.985,7.99-3.946
				C66.878-70.437,65.618-71.151,65.159-70.337z"/>
			<path fill="#F15A29" d="M102.017-78.72c-0.207,4.476-5.193,6.675-9.127,6.646c-3.68-0.025-6.029-4.27-8.318-6.6
				c-2.605-2.657-5.818-4.06-9.479-2.935c-3.658,1.124-5.371,4.751-5.545,8.358c-0.043,0.939,1.404,0.93,1.447-0.003
				c0.213-4.491,3.58-8.29,8.338-7.146c3.822,0.918,6.07,5.168,8.768,7.686c4.965,4.631,15.041,0.933,15.363-6.01
				C103.505-79.662,102.062-79.651,102.017-78.72z"/>
			<path fill="#E8BC07" d="M100.351-78.779c-1.995-1.853-3.098-5.06-6.425-4.482c-2.835,0.492-4.344,3.488-3.795,6.211
				c0.591,2.934,4.68,3.095,6.533,1.227c2.153-2.17-0.208-5.938-3.025-4.279c-1.11,0.654-0.104,2.383,1.01,1.727
				c1.006,0.041,1.167,0.45,0.483,1.229c-0.258,0.179-0.535,0.322-0.831,0.431c-0.873,0.338-2.153,0.159-2.236-1.018
				c-0.093-1.311,0.282-2.64,1.451-3.346c2.401-1.449,4.064,2.455,5.42,3.715C99.88-76.489,101.298-77.899,100.351-78.779z"/>
			<path fill="#F15A29" d="M96.698-84.758c-1.516-0.607-3.256-0.11-4.588,0.693c-2.689,1.624-4.758,5.392-3.104,8.426
				c2.373,4.356,8.498,2.632,9.713-1.636c1.205-4.236-6.127-7.165-6.922-2.516c-0.416,2.419,1.695,4.169,3.771,2.598
				c0.732-0.556-0.004-1.811-0.75-1.247c-1.109,0.838-1.818,0.141-1.592-1.158c0.354-2.068,3.127-0.893,3.889,0.24
				c1.123,1.669-0.779,3.771-2.127,4.509c-1.578,0.866-3.664,0.051-4.645-1.373c-1.488-2.16,0.418-5.084,2.176-6.369
				c2.863-2.096,5.43-0.319,6.537,2.684c0.322,0.876,1.715,0.492,1.391-0.389C99.735-82.226,98.663-83.971,96.698-84.758z"/>
			<path fill="#E8BC07" d="M76.352-66.458c-3.606-0.964-4.625-5.49-2.975-8.458c1.592-2.865,7.114-4.975,9.153-1.401
				c0.639,1.12,2.367,0.112,1.727-1.01c-1.584-2.777-5.928-3.653-8.682-2.133c-3.508,1.936-5.905,5.504-4.729,9.571
				c1.178,4.072,4.226,5.938,8.381,5.567c3.988-0.355,5.108-5.318,4.548-8.516c-0.483-2.757-4.96-5.131-7.469-3.764
				c-2.658,1.447-4.371,5.63-1.645,8.041c2.037,1.801,6.361,0.861,6.455-2.295c0.095-3.203-4.192-4.146-4.77-0.815
				c-0.219,1.261,1.708,1.8,1.929,0.531c-0.529,1.755-1.33,2.037-2.402,0.844c-0.499-0.807-0.635-1.682-0.41-2.624
				c0.626-3.047,4.154-1.947,5.667-0.597c1.153,1.029,0.911,3.146,0.602,4.491C81.172-66.594,78.466-65.892,76.352-66.458z"/>
			<path fill="#F15A29" d="M79.829-78.464c-2.672-0.958-5.215,0.313-6.609,2.643c-1.189,1.991-1.043,4.447-0.131,6.512
				c2.123,4.793,8.932,3.579,9.416-1.578c0.24-2.594-2.098-4.384-4.508-4.083c-2.355,0.294-3.938,2.989-2.412,5.065
				c1.391,1.889,3.768,0.953,3.797-1.262c0.01-0.94-1.438-0.932-1.449,0.004c-0.012,1.009-0.736,1.018-1.266,0.297
				c-0.535-0.726-0.119-1.842,0.527-2.311c1.475-1.071,3.609-0.042,3.852,1.696c0.422,3.037-3.375,4.944-5.594,3.008
				c-2.008-1.751-2.029-4.863-0.754-6.992c2.041-3.41,6.346-1.487,8.188,1.028c2.193,2.995,0.992,6.972-1.311,9.491
				c-2.689,2.942-6.641,2.406-9.201-0.376c-4.004-4.353-4.359-11.109-8.762-15.178c-4.373-4.041-10.742-0.466-11.342,4.957
				c-0.551,4.966,5.459,8.411,9.73,6.668c5.336-2.18,1.756-11.002-3.619-8.938c-1.846,0.708-2.922,2.903-1.957,4.739
				c0.977,1.858,2.988,2.047,4.467,0.686c0.686-0.633-0.357-1.644-1.041-1.014c-0.9,0.831-1.896,0.478-2.268-0.664
				c-0.566-1.723,1.494-2.79,2.908-2.538c1.869,0.333,2.984,2.41,2.695,4.177c-0.229,1.4-1.291,2.179-2.592,2.462
				c-2.346,0.512-5.594-0.887-6.543-3.176c-1.402-3.39,1.303-7.268,4.76-7.656c3.285-0.37,5.357,2.849,6.662,5.389
				c1.307,2.551,2.289,5.258,3.631,7.795c1.377,2.604,3.311,5.043,6.223,5.897c2.998,0.88,5.873-0.505,7.801-2.801
				c1.854-2.206,2.828-5.366,2.145-8.213C84.634-75.415,82.345-77.563,79.829-78.464z"/>
		</g>
		<g>
			<path fill="#F15A29" d="M49.781-88.961c-0.207,4.476-5.193,6.675-9.127,6.646c-3.68-0.025-6.029-4.27-8.318-6.6
				c-2.605-2.657-5.818-4.06-9.479-2.935c-3.658,1.124-5.371,4.751-5.545,8.358c-0.043,0.939,1.404,0.93,1.447-0.003
				c0.213-4.491,3.58-8.29,8.338-7.146c3.822,0.918,6.07,5.168,8.768,7.686c4.965,4.631,15.041,0.933,15.363-6.01
				C51.27-89.904,49.826-89.893,49.781-88.961z"/>
			<path fill="#E8BC07" d="M48.115-89.021c-1.995-1.853-3.098-5.06-6.425-4.482c-2.835,0.492-4.344,3.488-3.795,6.211
				c0.591,2.934,4.68,3.095,6.533,1.227c2.153-2.17-0.208-5.938-3.025-4.279c-1.11,0.654-0.104,2.383,1.01,1.727
				c1.006,0.041,1.167,0.45,0.483,1.229c-0.258,0.179-0.535,0.322-0.831,0.431c-0.873,0.338-2.153,0.159-2.236-1.018
				c-0.093-1.311,0.282-2.64,1.451-3.346c2.401-1.449,4.064,2.455,5.42,3.715C47.645-86.73,49.063-88.141,48.115-89.021z"/>
			<path fill="#F15A29" d="M44.463-95c-1.516-0.607-3.256-0.11-4.588,0.693c-2.689,1.624-4.758,5.392-3.104,8.426
				c2.373,4.356,8.498,2.632,9.713-1.636c1.205-4.236-6.127-7.165-6.922-2.516c-0.416,2.419,1.695,4.169,3.771,2.598
				c0.732-0.556-0.004-1.811-0.75-1.247c-1.109,0.838-1.818,0.141-1.592-1.158c0.354-2.068,3.127-0.893,3.889,0.24
				c1.123,1.669-0.779,3.771-2.127,4.509c-1.578,0.866-3.664,0.051-4.645-1.373c-1.488-2.16,0.418-5.084,2.176-6.369
				c2.863-2.096,5.43-0.319,6.537,2.684c0.322,0.876,1.715,0.492,1.391-0.389C47.5-92.467,46.428-94.212,44.463-95z"/>
			<path fill="#E8BC07" d="M24.117-76.699c-3.606-0.964-4.625-5.49-2.975-8.458c1.592-2.865,7.114-4.975,9.153-1.401
				c0.639,1.12,2.367,0.112,1.727-1.01c-1.584-2.777-5.928-3.653-8.682-2.133c-3.508,1.936-5.905,5.504-4.729,9.571
				c1.178,4.072,4.226,5.938,8.381,5.567c3.988-0.355,5.108-5.318,4.548-8.516c-0.483-2.757-4.96-5.131-7.469-3.764
				c-2.658,1.447-4.371,5.63-1.645,8.041c2.037,1.801,6.361,0.861,6.455-2.295c0.095-3.203-4.192-4.146-4.77-0.815
				c-0.219,1.261,1.708,1.8,1.929,0.531c-0.529,1.755-1.33,2.037-2.402,0.844c-0.499-0.807-0.635-1.682-0.41-2.624
				c0.626-3.047,4.154-1.947,5.667-0.597c1.153,1.029,0.911,3.146,0.602,4.491C28.937-76.835,26.23-76.134,24.117-76.699z"/>
			<path fill="#F15A29" d="M27.594-88.706c-2.672-0.958-5.215,0.313-6.609,2.643c-1.189,1.991-1.043,4.447-0.131,6.512
				c2.123,4.793,8.932,3.579,9.416-1.578c0.24-2.594-2.098-4.384-4.508-4.083c-2.355,0.294-3.938,2.989-2.412,5.065
				c1.391,1.889,3.768,0.953,3.797-1.262c0.01-0.94-1.438-0.932-1.449,0.004c-0.012,1.009-0.736,1.018-1.266,0.297
				c-0.535-0.726-0.119-1.842,0.527-2.311c1.475-1.071,3.609-0.042,3.852,1.696c0.422,3.037-3.375,4.944-5.594,3.008
				c-2.008-1.751-2.029-4.863-0.754-6.992c2.041-3.41,6.346-1.487,8.188,1.028c2.193,2.995,0.992,6.972-1.311,9.491
				c-2.689,2.942-6.641,2.406-9.201-0.376c-4.004-4.353-4.359-11.109-8.762-15.178c-4.373-4.041-10.742-0.466-11.342,4.957
				c-0.551,4.966,5.459,8.411,9.73,6.668c5.336-2.18,1.756-11.002-3.619-8.938c-1.846,0.708-2.922,2.903-1.957,4.739
				c0.977,1.858,2.988,2.047,4.467,0.686c0.686-0.633-0.357-1.644-1.041-1.014c-0.9,0.831-1.896,0.478-2.268-0.664
				c-0.566-1.723,1.494-2.79,2.908-2.538c1.869,0.333,2.984,2.41,2.695,4.177c-0.229,1.4-1.291,2.179-2.592,2.462
				c-2.346,0.512-5.594-0.887-6.543-3.176c-1.402-3.39,1.303-7.268,4.76-7.656c3.285-0.37,5.357,2.849,6.662,5.389
				c1.307,2.551,2.289,5.258,3.631,7.795c1.377,2.604,3.311,5.043,6.223,5.897c2.998,0.88,5.873-0.505,7.801-2.801
				c1.854-2.206,2.828-5.366,2.145-8.213C32.398-85.657,30.109-87.804,27.594-88.706z"/>
		</g>
		<g>
			<path fill="#E8BC07" d="M116.461-108.42c-1.146-1.356-2.13-2.823-4.082-2.918c-2.116-0.103-4.082,0.646-5.346,2.399
				c-1.231,1.708-1.723,3.48-0.545,5.336c0.875,1.38,2.93,3.045,4.625,3.118c1.718,0.073,3.514-0.496,4.276-2.172
				c0.621-1.367-0.143-3.481-1.431-4.23c-1.17-0.68-3.476-0.849-4.063,0.708c-0.44,1.167,0.099,2.879,1.624,2.306
				c0.681-0.256,0.793-0.986,0.551-1.489c0.079-0.004,0.156-0.004,0.238-0.022c0.509,0.075,0.864,0.339,1.063,0.792
				c0.651,1.044-0.174,1.781-1.135,2.067c-1.63,0.485-3.482-1.237-4.283-2.5c-1.184-1.865,1.775-3.955,3.187-4.279
				c1.969-0.452,2.824,1.016,3.907,2.297C115.881-106.02,117.288-107.441,116.461-108.42z"/>
			<path fill="#F15A29" d="M117.395-101.062c-0.971,1.72-2.299,3.239-4.357,3.463c-1.777,0.194-3.518-0.688-4.975-1.615
				c-3.209-2.044-5.205-5.179-7.559-8.069c-2.152-2.642-5.014-3.656-8.305-2.653c-3.564,1.087-5.035,4.359-5.629,7.788
				c-0.16,0.92,1.238,1.295,1.4,0.371c0.309-1.787,0.754-3.58,1.926-5.006c1.318-1.603,3.525-2.209,5.523-2.087
				c3.334,0.202,5.23,4.328,7.119,6.582c2.137,2.55,4.898,4.937,8.125,5.89c3.488,1.028,6.322-0.985,7.99-3.946
				C119.114-101.161,117.854-101.876,117.395-101.062z"/>
			<path fill="#F15A29" d="M154.252-109.444c-0.207,4.476-5.193,6.675-9.127,6.646c-3.68-0.025-6.029-4.27-8.318-6.6
				c-2.605-2.657-5.818-4.06-9.479-2.935c-3.658,1.124-5.371,4.751-5.545,8.358c-0.043,0.939,1.404,0.93,1.447-0.003
				c0.213-4.491,3.58-8.29,8.338-7.146c3.822,0.918,6.07,5.168,8.768,7.686c4.965,4.631,15.041,0.933,15.363-6.01
				C155.741-110.387,154.297-110.376,154.252-109.444z"/>
			<path fill="#E8BC07" d="M128.588-97.182c-3.606-0.964-4.625-5.49-2.975-8.458c1.592-2.865,7.114-4.975,9.153-1.401
				c0.639,1.12,2.367,0.112,1.727-1.01c-1.584-2.777-5.928-3.653-8.682-2.133c-3.508,1.936-5.905,5.504-4.729,9.571
				c1.178,4.072,4.226,5.938,8.381,5.567c3.988-0.355,5.108-5.318,4.548-8.516c-0.483-2.757-4.96-5.131-7.469-3.764
				c-2.658,1.447-4.371,5.63-1.645,8.041c2.037,1.801,6.361,0.861,6.455-2.295c0.095-3.203-4.192-4.146-4.77-0.815
				c-0.219,1.261,1.708,1.8,1.929,0.531c-0.529,1.755-1.33,2.037-2.402,0.844c-0.499-0.807-0.635-1.682-0.41-2.624
				c0.626-3.047,4.154-1.947,5.667-0.597c1.153,1.029,0.911,3.146,0.602,4.491C133.408-97.318,130.702-96.617,128.588-97.182z"/>
			<path fill="#F15A29" d="M132.065-109.188c-2.672-0.958-5.215,0.313-6.609,2.643c-1.189,1.991-1.043,4.447-0.131,6.512
				c2.123,4.793,8.932,3.579,9.416-1.578c0.24-2.594-2.098-4.384-4.508-4.083c-2.355,0.294-3.938,2.989-2.412,5.065
				c1.391,1.889,3.768,0.953,3.797-1.262c0.01-0.94-1.438-0.932-1.449,0.004c-0.012,1.009-0.736,1.018-1.266,0.297
				c-0.535-0.726-0.119-1.842,0.527-2.311c1.475-1.071,3.609-0.042,3.852,1.696c0.422,3.037-3.375,4.944-5.594,3.008
				c-2.008-1.751-2.029-4.863-0.754-6.992c2.041-3.41,6.346-1.487,8.188,1.028c2.193,2.995,0.992,6.972-1.311,9.491
				c-2.689,2.942-6.641,2.406-9.201-0.376c-4.004-4.353-4.359-11.109-8.762-15.178c-4.373-4.041-10.742-0.466-11.342,4.957
				c-0.551,4.966,5.459,8.411,9.73,6.668c5.336-2.18,1.756-11.002-3.619-8.938c-1.846,0.708-2.922,2.903-1.957,4.739
				c0.977,1.858,2.988,2.047,4.467,0.686c0.686-0.633-0.357-1.644-1.041-1.014c-0.9,0.831-1.896,0.478-2.268-0.664
				c-0.566-1.723,1.494-2.79,2.908-2.538c1.869,0.333,2.984,2.41,2.695,4.177c-0.229,1.4-1.291,2.179-2.592,2.462
				c-2.346,0.512-5.594-0.887-6.543-3.176c-1.402-3.39,1.303-7.268,4.76-7.656c3.285-0.37,5.357,2.849,6.662,5.389
				c1.307,2.551,2.289,5.258,3.631,7.795c1.377,2.604,3.311,5.043,6.223,5.897c2.998,0.88,5.873-0.505,7.801-2.801
				c1.854-2.206,2.828-5.366,2.145-8.213C136.87-106.14,134.581-108.287,132.065-109.188z"/>
		</g>
		<g>
			<path fill="#E8BC07" d="M64.226-98.179c-1.146-1.356-2.13-2.823-4.082-2.918c-2.116-0.103-4.082,0.646-5.346,2.399
				c-1.231,1.708-1.723,3.48-0.545,5.336c0.875,1.38,2.93,3.045,4.625,3.118c1.718,0.073,3.514-0.496,4.276-2.172
				c0.621-1.367-0.143-3.481-1.431-4.23c-1.17-0.68-3.476-0.849-4.063,0.708c-0.44,1.167,0.099,2.879,1.624,2.306
				c0.681-0.256,0.793-0.986,0.551-1.489c0.079-0.004,0.156-0.004,0.238-0.022c0.509,0.075,0.864,0.339,1.063,0.792
				c0.651,1.044-0.174,1.781-1.135,2.067c-1.63,0.485-3.482-1.237-4.283-2.5c-1.184-1.865,1.775-3.955,3.187-4.279
				c1.969-0.452,2.824,1.016,3.907,2.297C63.645-95.778,65.052-97.2,64.226-98.179z"/>
			<path fill="#F15A29" d="M65.159-90.82c-0.971,1.72-2.299,3.239-4.357,3.463c-1.777,0.194-3.518-0.688-4.975-1.615
				c-3.209-2.044-5.205-5.179-7.559-8.069c-2.152-2.642-5.014-3.656-8.305-2.653c-3.564,1.087-5.035,4.359-5.629,7.788
				c-0.16,0.92,1.238,1.295,1.4,0.371c0.309-1.787,0.754-3.58,1.926-5.006c1.318-1.603,3.525-2.209,5.523-2.087
				c3.334,0.202,5.23,4.328,7.119,6.582c2.137,2.55,4.898,4.937,8.125,5.89c3.488,1.028,6.322-0.985,7.99-3.946
				C66.878-90.92,65.618-91.635,65.159-90.82z"/>
			<path fill="#F15A29" d="M102.017-99.203c-0.207,4.476-5.193,6.675-9.127,6.646c-3.68-0.025-6.029-4.27-8.318-6.6
				c-2.605-2.657-5.818-4.06-9.479-2.935c-3.658,1.124-5.371,4.751-5.545,8.358c-0.043,0.939,1.404,0.93,1.447-0.003
				c0.213-4.491,3.58-8.29,8.338-7.146c3.822,0.918,6.07,5.168,8.768,7.686c4.965,4.631,15.041,0.933,15.363-6.01
				C103.505-100.146,102.062-100.135,102.017-99.203z"/>
			<path fill="#E8BC07" d="M100.351-99.262c-1.995-1.853-3.098-5.06-6.425-4.482c-2.835,0.492-4.344,3.488-3.795,6.211
				c0.591,2.934,4.68,3.095,6.533,1.227c2.153-2.17-0.208-5.938-3.025-4.279c-1.11,0.654-0.104,2.383,1.01,1.727
				c1.006,0.041,1.167,0.45,0.483,1.229c-0.258,0.179-0.535,0.322-0.831,0.431c-0.873,0.338-2.153,0.159-2.236-1.018
				c-0.093-1.311,0.282-2.64,1.451-3.346c2.401-1.449,4.064,2.455,5.42,3.715C99.88-96.972,101.298-98.383,100.351-99.262z"/>
			<path fill="#F15A29" d="M96.698-105.241c-1.516-0.607-3.256-0.11-4.588,0.693c-2.689,1.624-4.758,5.392-3.104,8.426
				c2.373,4.356,8.498,2.632,9.713-1.636c1.205-4.236-6.127-7.165-6.922-2.516c-0.416,2.419,1.695,4.169,3.771,2.598
				c0.732-0.556-0.004-1.811-0.75-1.247c-1.109,0.838-1.818,0.141-1.592-1.158c0.354-2.068,3.127-0.893,3.889,0.24
				c1.123,1.669-0.779,3.771-2.127,4.509c-1.578,0.866-3.664,0.051-4.645-1.373c-1.488-2.16,0.418-5.084,2.176-6.369
				c2.863-2.096,5.43-0.319,6.537,2.684c0.322,0.876,1.715,0.492,1.391-0.389C99.735-102.709,98.663-104.454,96.698-105.241z"/>
			<path fill="#E8BC07" d="M76.352-86.941c-3.606-0.964-4.625-5.49-2.975-8.458c1.592-2.865,7.114-4.975,9.153-1.401
				c0.639,1.12,2.367,0.112,1.727-1.01c-1.584-2.777-5.928-3.653-8.682-2.133c-3.508,1.936-5.905,5.504-4.729,9.571
				c1.178,4.072,4.226,5.938,8.381,5.567c3.988-0.355,5.108-5.318,4.548-8.516c-0.483-2.757-4.96-5.131-7.469-3.764
				c-2.658,1.447-4.371,5.63-1.645,8.041c2.037,1.801,6.361,0.861,6.455-2.295c0.095-3.203-4.192-4.146-4.77-0.815
				c-0.219,1.261,1.708,1.8,1.929,0.531c-0.529,1.755-1.33,2.037-2.402,0.844c-0.499-0.807-0.635-1.682-0.41-2.624
				c0.626-3.047,4.154-1.947,5.667-0.597c1.153,1.029,0.911,3.146,0.602,4.491C81.172-87.077,78.466-86.375,76.352-86.941z"/>
			<path fill="#F15A29" d="M79.829-98.947c-2.672-0.958-5.215,0.313-6.609,2.643c-1.189,1.991-1.043,4.447-0.131,6.512
				c2.123,4.793,8.932,3.579,9.416-1.578c0.24-2.594-2.098-4.384-4.508-4.083c-2.355,0.294-3.938,2.989-2.412,5.065
				c1.391,1.889,3.768,0.953,3.797-1.262c0.01-0.94-1.438-0.932-1.449,0.004c-0.012,1.009-0.736,1.018-1.266,0.297
				c-0.535-0.726-0.119-1.842,0.527-2.311c1.475-1.071,3.609-0.042,3.852,1.696c0.422,3.037-3.375,4.944-5.594,3.008
				c-2.008-1.751-2.029-4.863-0.754-6.992c2.041-3.41,6.346-1.487,8.188,1.028c2.193,2.995,0.992,6.972-1.311,9.491
				c-2.689,2.942-6.641,2.406-9.201-0.376c-4.004-4.353-4.359-11.109-8.762-15.178c-4.373-4.041-10.742-0.466-11.342,4.957
				c-0.551,4.966,5.459,8.411,9.73,6.668c5.336-2.18,1.756-11.002-3.619-8.938c-1.846,0.708-2.922,2.903-1.957,4.739
				c0.977,1.858,2.988,2.047,4.467,0.686c0.686-0.633-0.357-1.644-1.041-1.014c-0.9,0.831-1.896,0.478-2.268-0.664
				c-0.566-1.723,1.494-2.79,2.908-2.538c1.869,0.333,2.984,2.41,2.695,4.177c-0.229,1.4-1.291,2.179-2.592,2.462
				c-2.346,0.512-5.594-0.887-6.543-3.176c-1.402-3.39,1.303-7.268,4.76-7.656c3.285-0.37,5.357,2.849,6.662,5.389
				c1.307,2.551,2.289,5.258,3.631,7.795c1.377,2.604,3.311,5.043,6.223,5.897c2.998,0.88,5.873-0.505,7.801-2.801
				c1.854-2.206,2.828-5.366,2.145-8.213C84.634-95.898,82.345-98.046,79.829-98.947z"/>
		</g>
		<g>
			<path fill="#F15A29" d="M49.781-109.444c-0.207,4.476-5.193,6.675-9.127,6.646c-3.68-0.025-6.029-4.27-8.318-6.6
				c-2.605-2.657-5.818-4.06-9.479-2.935c-3.658,1.124-5.371,4.751-5.545,8.358c-0.043,0.939,1.404,0.93,1.447-0.003
				c0.213-4.491,3.58-8.29,8.338-7.146c3.822,0.918,6.07,5.168,8.768,7.686c4.965,4.631,15.041,0.933,15.363-6.01
				C51.27-110.387,49.826-110.376,49.781-109.444z"/>
			<path fill="#E8BC07" d="M48.115-109.503c-1.995-1.853-3.098-5.06-6.425-4.482c-2.835,0.492-4.344,3.488-3.795,6.211
				c0.591,2.934,4.68,3.095,6.533,1.227c2.153-2.17-0.208-5.938-3.025-4.279c-1.11,0.654-0.104,2.383,1.01,1.727
				c1.006,0.041,1.167,0.45,0.483,1.229c-0.258,0.179-0.535,0.322-0.831,0.431c-0.873,0.338-2.153,0.159-2.236-1.018
				c-0.093-1.311,0.282-2.64,1.451-3.346c2.401-1.449,4.064,2.455,5.42,3.715C47.645-107.213,49.063-108.624,48.115-109.503z"/>
			<path fill="#F15A29" d="M44.463-115.482c-1.516-0.607-3.256-0.11-4.588,0.693c-2.689,1.624-4.758,5.392-3.104,8.426
				c2.373,4.356,8.498,2.632,9.713-1.636c1.205-4.236-6.127-7.165-6.922-2.516c-0.416,2.419,1.695,4.169,3.771,2.598
				c0.732-0.556-0.004-1.811-0.75-1.247c-1.109,0.838-1.818,0.141-1.592-1.158c0.354-2.068,3.127-0.893,3.889,0.24
				c1.123,1.669-0.779,3.771-2.127,4.509c-1.578,0.866-3.664,0.051-4.645-1.373c-1.488-2.16,0.418-5.084,2.176-6.369
				c2.863-2.096,5.43-0.319,6.537,2.684c0.322,0.876,1.715,0.492,1.391-0.389C47.5-112.95,46.428-114.695,44.463-115.482z"/>
			<path fill="#E8BC07" d="M24.117-97.182c-3.606-0.964-4.625-5.49-2.975-8.458c1.592-2.865,7.114-4.975,9.153-1.401
				c0.639,1.12,2.367,0.112,1.727-1.01c-1.584-2.777-5.928-3.653-8.682-2.133c-3.508,1.936-5.905,5.504-4.729,9.571
				c1.178,4.072,4.226,5.938,8.381,5.567c3.988-0.355,5.108-5.318,4.548-8.516c-0.483-2.757-4.96-5.131-7.469-3.764
				c-2.658,1.447-4.371,5.63-1.645,8.041c2.037,1.801,6.361,0.861,6.455-2.295c0.095-3.203-4.192-4.146-4.77-0.815
				c-0.219,1.261,1.708,1.8,1.929,0.531c-0.529,1.755-1.33,2.037-2.402,0.844c-0.499-0.807-0.635-1.682-0.41-2.624
				c0.626-3.047,4.154-1.947,5.667-0.597c1.153,1.029,0.911,3.146,0.602,4.491C28.937-97.318,26.23-96.617,24.117-97.182z"/>
			<path fill="#F15A29" d="M27.594-109.188c-2.672-0.958-5.215,0.313-6.609,2.643c-1.189,1.991-1.043,4.447-0.131,6.512
				c2.123,4.793,8.932,3.579,9.416-1.578c0.24-2.594-2.098-4.384-4.508-4.083c-2.355,0.294-3.938,2.989-2.412,5.065
				c1.391,1.889,3.768,0.953,3.797-1.262c0.01-0.94-1.438-0.932-1.449,0.004c-0.012,1.009-0.736,1.018-1.266,0.297
				c-0.535-0.726-0.119-1.842,0.527-2.311c1.475-1.071,3.609-0.042,3.852,1.696c0.422,3.037-3.375,4.944-5.594,3.008
				c-2.008-1.751-2.029-4.863-0.754-6.992c2.041-3.41,6.346-1.487,8.188,1.028c2.193,2.995,0.992,6.972-1.311,9.491
				c-2.689,2.942-6.641,2.406-9.201-0.376c-4.004-4.353-4.359-11.109-8.762-15.178c-4.373-4.041-10.742-0.466-11.342,4.957
				c-0.551,4.966,5.459,8.411,9.73,6.668c5.336-2.18,1.756-11.002-3.619-8.938c-1.846,0.708-2.922,2.903-1.957,4.739
				c0.977,1.858,2.988,2.047,4.467,0.686c0.686-0.633-0.357-1.644-1.041-1.014c-0.9,0.831-1.896,0.478-2.268-0.664
				c-0.566-1.723,1.494-2.79,2.908-2.538c1.869,0.333,2.984,2.41,2.695,4.177c-0.229,1.4-1.291,2.179-2.592,2.462
				c-2.346,0.512-5.594-0.887-6.543-3.176c-1.402-3.39,1.303-7.268,4.76-7.656c3.285-0.37,5.357,2.849,6.662,5.389
				c1.307,2.551,2.289,5.258,3.631,7.795c1.377,2.604,3.311,5.043,6.223,5.897c2.998,0.88,5.873-0.505,7.801-2.801
				c1.854-2.206,2.828-5.366,2.145-8.213C32.398-106.14,30.109-108.287,27.594-109.188z"/>
		</g>
		<g>
			<path fill="#F15A29" d="M132.065-129.672c-2.672-0.958-5.215,0.313-6.609,2.643c-1.189,1.991-1.043,4.447-0.131,6.512
				c2.123,4.793,8.932,3.579,9.416-1.578c0.24-2.594-2.098-4.384-4.508-4.083c-2.355,0.294-3.938,2.989-2.412,5.065
				c1.391,1.889,3.768,0.953,3.797-1.262c0.01-0.94-1.438-0.932-1.449,0.004c-0.012,1.009-0.736,1.018-1.266,0.297
				c-0.535-0.726-0.119-1.842,0.527-2.311c1.475-1.071,3.609-0.042,3.852,1.696c0.422,3.037-3.375,4.944-5.594,3.008
				c-2.008-1.751-2.029-4.863-0.754-6.992c2.041-3.41,6.346-1.487,8.188,1.028c2.193,2.995,0.992,6.972-1.311,9.491
				c-2.689,2.942-6.641,2.406-9.201-0.376c-4.004-4.353-4.359-11.109-8.762-15.178c-4.373-4.041-10.742-0.466-11.342,4.957
				c-0.551,4.966,5.459,8.411,9.73,6.668c5.336-2.18,1.756-11.002-3.619-8.938c-1.846,0.708-2.922,2.903-1.957,4.739
				c0.977,1.858,2.988,2.047,4.467,0.686c0.686-0.633-0.357-1.644-1.041-1.014c-0.9,0.831-1.896,0.478-2.268-0.664
				c-0.566-1.723,1.494-2.79,2.908-2.538c1.869,0.333,2.984,2.41,2.695,4.177c-0.229,1.4-1.291,2.179-2.592,2.462
				c-2.346,0.512-5.594-0.887-6.543-3.176c-1.402-3.39,1.303-7.268,4.76-7.656c3.285-0.37,5.357,2.849,6.662,5.389
				c1.307,2.551,2.289,5.258,3.631,7.795c1.377,2.604,3.311,5.043,6.223,5.897c2.998,0.88,5.873-0.505,7.801-2.801
				c1.854-2.206,2.828-5.366,2.145-8.213C136.87-126.623,134.581-128.771,132.065-129.672z"/>
		</g>
		<g>
			<path fill="#E8BC07" d="M64.226-118.662c-1.146-1.356-2.13-2.823-4.082-2.918c-2.116-0.103-4.082,0.646-5.346,2.399
				c-1.231,1.708-1.723,3.48-0.545,5.336c0.875,1.38,2.93,3.045,4.625,3.118c1.718,0.073,3.514-0.496,4.276-2.172
				c0.621-1.367-0.143-3.481-1.431-4.23c-1.17-0.68-3.476-0.849-4.063,0.708c-0.44,1.167,0.099,2.879,1.624,2.306
				c0.681-0.256,0.793-0.986,0.551-1.489c0.079-0.004,0.156-0.004,0.238-0.022c0.509,0.075,0.864,0.339,1.063,0.792
				c0.651,1.044-0.174,1.781-1.135,2.067c-1.63,0.485-3.482-1.237-4.283-2.5c-1.184-1.865,1.775-3.955,3.187-4.279
				c1.969-0.452,2.824,1.016,3.907,2.297C63.645-116.261,65.052-117.683,64.226-118.662z"/>
			<path fill="#F15A29" d="M65.159-111.303c-0.971,1.72-2.299,3.239-4.357,3.463c-1.777,0.194-3.518-0.688-4.975-1.615
				c-3.209-2.044-5.205-5.179-7.559-8.069c-2.152-2.642-5.014-3.656-8.305-2.653c-3.564,1.087-5.035,4.359-5.629,7.788
				c-0.16,0.92,1.238,1.295,1.4,0.371c0.309-1.787,0.754-3.58,1.926-5.006c1.318-1.603,3.525-2.209,5.523-2.087
				c3.334,0.202,5.23,4.328,7.119,6.582c2.137,2.55,4.898,4.937,8.125,5.89c3.488,1.028,6.322-0.985,7.99-3.946
				C66.878-111.403,65.618-112.118,65.159-111.303z"/>
			<path fill="#F15A29" d="M102.017-119.686c-0.207,4.476-5.193,6.675-9.127,6.646c-3.68-0.025-6.029-4.27-8.318-6.6
				c-2.605-2.657-5.818-4.06-9.479-2.935c-3.658,1.124-5.371,4.751-5.545,8.358c-0.043,0.939,1.404,0.93,1.447-0.003
				c0.213-4.491,3.58-8.29,8.338-7.146c3.822,0.918,6.07,5.168,8.768,7.686c4.965,4.631,15.041,0.933,15.363-6.01
				C103.505-120.628,102.062-120.618,102.017-119.686z"/>
			<path fill="#F15A29" d="M96.698-125.724c-1.516-0.607-3.256-0.11-4.588,0.693c-2.689,1.624-4.758,5.392-3.104,8.426
				c2.373,4.356,8.498,2.632,9.713-1.636c1.205-4.236-6.127-7.165-6.922-2.516c-0.416,2.419,1.695,4.169,3.771,2.598
				c0.732-0.556-0.004-1.811-0.75-1.247c-1.109,0.838-1.818,0.141-1.592-1.158c0.354-2.068,3.127-0.893,3.889,0.24
				c1.123,1.669-0.779,3.771-2.127,4.509c-1.578,0.866-3.664,0.051-4.645-1.373c-1.488-2.16,0.418-5.084,2.176-6.369
				c2.863-2.096,5.43-0.319,6.537,2.684c0.322,0.876,1.715,0.492,1.391-0.389C99.735-123.192,98.663-124.937,96.698-125.724z"/>
			<path fill="#E8BC07" d="M76.352-107.424c-3.606-0.964-4.625-5.49-2.975-8.458c1.592-2.865,7.114-4.975,9.153-1.401
				c0.639,1.12,2.367,0.112,1.727-1.01c-1.584-2.777-5.928-3.653-8.682-2.133c-3.508,1.936-5.905,5.504-4.729,9.571
				c1.178,4.072,4.226,5.938,8.381,5.567c3.988-0.355,5.108-5.318,4.548-8.516c-0.483-2.757-4.96-5.131-7.469-3.764
				c-2.658,1.447-4.371,5.63-1.645,8.041c2.037,1.801,6.361,0.861,6.455-2.295c0.095-3.203-4.192-4.146-4.77-0.815
				c-0.219,1.261,1.708,1.8,1.929,0.531c-0.529,1.755-1.33,2.037-2.402,0.844c-0.499-0.807-0.635-1.682-0.41-2.624
				c0.626-3.047,4.154-1.947,5.667-0.597c1.153,1.029,0.911,3.146,0.602,4.491C81.172-107.56,78.466-106.858,76.352-107.424z"/>
			<path fill="#F15A29" d="M79.829-119.43c-2.672-0.958-5.215,0.313-6.609,2.643c-1.189,1.991-1.043,4.447-0.131,6.512
				c2.123,4.793,8.932,3.579,9.416-1.578c0.24-2.594-2.098-4.384-4.508-4.083c-2.355,0.294-3.938,2.989-2.412,5.065
				c1.391,1.889,3.768,0.953,3.797-1.262c0.01-0.94-1.438-0.932-1.449,0.004c-0.012,1.009-0.736,1.018-1.266,0.297
				c-0.535-0.726-0.119-1.842,0.527-2.311c1.475-1.071,3.609-0.042,3.852,1.696c0.422,3.037-3.375,4.944-5.594,3.008
				c-2.008-1.751-2.029-4.863-0.754-6.992c2.041-3.41,6.346-1.487,8.188,1.028c2.193,2.995,0.992,6.972-1.311,9.491
				c-2.689,2.942-6.641,2.406-9.201-0.376c-4.004-4.353-4.359-11.109-8.762-15.178c-4.373-4.041-10.742-0.466-11.342,4.957
				c-0.551,4.966,5.459,8.411,9.73,6.668c5.336-2.18,1.756-11.002-3.619-8.938c-1.846,0.708-2.922,2.903-1.957,4.739
				c0.977,1.858,2.988,2.047,4.467,0.686c0.686-0.633-0.357-1.644-1.041-1.014c-0.9,0.831-1.896,0.478-2.268-0.664
				c-0.566-1.723,1.494-2.79,2.908-2.538c1.869,0.333,2.984,2.41,2.695,4.177c-0.229,1.4-1.291,2.179-2.592,2.462
				c-2.346,0.512-5.594-0.887-6.543-3.176c-1.402-3.39,1.303-7.268,4.76-7.656c3.285-0.37,5.357,2.849,6.662,5.389
				c1.307,2.551,2.289,5.258,3.631,7.795c1.377,2.604,3.311,5.043,6.223,5.897c2.998,0.88,5.873-0.505,7.801-2.801
				c1.854-2.206,2.828-5.366,2.145-8.213C84.634-116.381,82.345-118.529,79.829-119.43z"/>
		</g>
		<g>
			<path fill="#F15A29" d="M27.594-129.672c-2.672-0.958-5.215,0.313-6.609,2.643c-1.189,1.991-1.043,4.447-0.131,6.512
				c2.123,4.793,8.932,3.579,9.416-1.578c0.24-2.594-2.098-4.384-4.508-4.083c-2.355,0.294-3.938,2.989-2.412,5.065
				c1.391,1.889,3.768,0.953,3.797-1.262c0.01-0.94-1.438-0.932-1.449,0.004c-0.012,1.009-0.736,1.018-1.266,0.297
				c-0.535-0.726-0.119-1.842,0.527-2.311c1.475-1.071,3.609-0.042,3.852,1.696c0.422,3.037-3.375,4.944-5.594,3.008
				c-2.008-1.751-2.029-4.863-0.754-6.992c2.041-3.41,6.346-1.487,8.188,1.028c2.193,2.995,0.992,6.972-1.311,9.491
				c-2.689,2.942-6.641,2.406-9.201-0.376c-4.004-4.353-4.359-11.109-8.762-15.178c-4.373-4.041-10.742-0.466-11.342,4.957
				c-0.551,4.966,5.459,8.411,9.73,6.668c5.336-2.18,1.756-11.002-3.619-8.938c-1.846,0.708-2.922,2.903-1.957,4.739
				c0.977,1.858,2.988,2.047,4.467,0.686c0.686-0.633-0.357-1.644-1.041-1.014c-0.9,0.831-1.896,0.478-2.268-0.664
				c-0.566-1.723,1.494-2.79,2.908-2.538c1.869,0.333,2.984,2.41,2.695,4.177c-0.229,1.4-1.291,2.179-2.592,2.462
				c-2.346,0.512-5.594-0.887-6.543-3.176c-1.402-3.39,1.303-7.268,4.76-7.656c3.285-0.37,5.357,2.849,6.662,5.389
				c1.307,2.551,2.289,5.258,3.631,7.795c1.377,2.604,3.311,5.043,6.223,5.897c2.998,0.88,5.873-0.505,7.801-2.801
				c1.854-2.206,2.828-5.366,2.145-8.213C32.398-126.623,30.109-128.771,27.594-129.672z"/>
		</g>
	</g>
</pattern>
<circle fill="#F7941E" stroke="#F7941E" stroke-miterlimit="10" cx="53.736" cy="53.736" r="53.236"/>
<circle opacity="0.5" fill="url(#New_Pattern_8)" cx="53.736" cy="53.736" r="53.168"/>
</svg>
